<svg xmlns="http://www.w3.org/2000/svg" width="1024" height="1024" viewBox="0 0 1024 1024" version="1.1"><path d="M 315.255 267.427 C 311.820 268.103, 308.670 269.031, 308.255 269.488 C 307.840 269.945, 308.243 270.053, 309.152 269.728 C 314.553 267.798, 327.021 266.925, 334.923 267.923 C 344.967 269.192, 346.732 268.681, 337.723 267.112 C 329.829 265.738, 323.367 265.828, 315.255 267.427 M 506.083 266.380 C 506.313 266.588, 510.550 267.012, 515.500 267.320 C 521.900 267.719, 523.344 267.626, 520.500 266.998 C 516.552 266.127, 505.275 265.643, 506.083 266.380 M 686.500 266.918 C 684.716 267.324, 687.148 267.580, 692.500 267.550 C 697.450 267.522, 703.975 267.799, 707 268.164 L 712.500 268.829 707.500 267.510 C 702.156 266.101, 691.427 265.799, 686.500 266.918 M 497.500 267.690 C 478.998 271.926, 461.811 286.112, 453.816 303.746 C 441.714 330.436, 450.019 362.653, 473.465 379.974 C 485.399 388.790, 496.955 392.473, 512.500 392.412 C 525.108 392.363, 531.715 390.776, 542.500 385.204 C 551.386 380.614, 563.307 368.954, 568.297 359.971 C 572.913 351.663, 576.031 338.864, 575.842 329 L 575.699 321.500 575.019 330.500 C 574.151 342.001, 572.479 348.990, 568.798 356.500 C 558.023 378.486, 537.235 391.367, 512.500 391.383 C 502.314 391.390, 490.901 389.010, 483.657 385.368 C 477.440 382.242, 466.116 372.835, 461.987 367.367 C 454.394 357.310, 449 341.636, 449 329.630 C 449 314.456, 455.274 298.929, 465.943 287.697 C 476.545 276.536, 485.635 271.319, 499.500 268.441 C 502.839 267.748, 504.170 267.204, 502.500 267.214 C 500.850 267.224, 498.600 267.438, 497.500 267.690 M 673.092 270.483 C 655.618 276.971, 641.394 292.007, 635.310 310.422 C 633.040 317.291, 632.641 320.221, 632.642 330 C 632.644 340.313, 632.974 342.466, 635.839 350.859 L 639.035 360.218 591.398 408.609 C 565.198 435.224, 543.567 457, 543.331 457 C 543.094 457, 541.531 456.292, 539.857 455.426 C 538.184 454.561, 536.626 454.040, 536.397 454.270 C 536.167 454.499, 537.730 455.476, 539.870 456.441 L 543.760 458.195 579.630 421.844 C 599.358 401.850, 621.056 379.803, 627.846 372.850 L 640.192 360.208 637.670 352.854 C 629.073 327.783, 633.467 305.115, 650.388 287.250 C 658.382 278.809, 666.339 273.649, 676.370 270.399 C 680.292 269.129, 682.600 268.093, 681.500 268.097 C 680.400 268.101, 676.617 269.175, 673.092 270.483 M 534.302 271.433 C 553.208 279.207, 567.933 295.413, 573.023 314.048 C 574.351 318.908, 574.872 320.025, 574.520 317.260 C 572.747 303.339, 561.407 286.783, 546.892 276.926 C 541.374 273.179, 532.233 268.974, 529.713 269.024 C 529.046 269.037, 531.111 270.121, 534.302 271.433 M 718.302 271.345 C 727.991 275.477, 734.885 280.172, 741.445 287.107 C 753.010 299.333, 758.411 312.819, 758.423 329.500 C 758.431 341.337, 756.542 349.408, 751.331 359.805 C 744.719 372.997, 728.870 385.308, 713 389.579 C 698.323 393.528, 678.951 390.789, 665.349 382.840 L 658.525 378.852 647.113 390.676 C 617.758 421.092, 573.094 466.974, 568.678 471.250 C 565.980 473.863, 564.214 476, 564.753 476 C 565.293 476, 578.922 462.387, 595.041 445.750 C 611.160 429.113, 632.211 407.529, 641.822 397.788 L 659.297 380.075 662.085 382.060 C 671.786 388.968, 690.091 393.742, 702.274 392.542 C 728.876 389.920, 750.371 372.216, 757.565 347 C 759.810 339.134, 760.083 323.069, 758.110 315 C 755.035 302.426, 747.316 290.181, 736.889 281.339 C 730.672 276.067, 720.877 270.649, 715.500 269.507 C 713.850 269.157, 715.111 269.984, 718.302 271.345 M 299 272.965 C 274.504 285.744, 260.842 313.214, 265.495 340.335 C 269.660 364.613, 285.332 382.771, 308.735 390.436 L 313.970 392.151 314.251 421.825 L 314.531 451.500 314.765 421.297 L 315 391.094 308.443 389.127 C 298.871 386.256, 289.147 380.059, 282.037 372.299 C 264.345 352.991, 260.703 325.283, 272.593 300.445 C 276.719 291.828, 290.225 278.585, 299.853 273.717 C 303.897 271.673, 306.597 270.022, 305.853 270.048 C 305.109 270.075, 302.025 271.387, 299 272.965 M 354.500 273.397 C 378.247 285.329, 392.271 308.839, 390.651 334 C 388.970 360.117, 373.385 380.534, 348.738 388.910 L 343.500 390.690 343.235 420.860 L 342.971 451.029 345.735 452.157 C 366.706 460.708, 377.452 470.056, 385.104 486.408 C 393.868 505.137, 392.387 529.764, 381.535 545.734 C 380.141 547.786, 379 549.803, 379 550.216 C 379 550.629, 389.299 561.212, 401.886 573.734 C 435.411 607.083, 475.557 646.652, 474.699 645.500 C 474.289 644.950, 452.789 623.333, 426.922 597.461 L 379.891 550.423 383.475 544.472 C 389.417 534.604, 391.461 526.412, 391.451 512.500 C 391.442 499.140, 390.328 494.542, 384.181 482.500 C 377.610 469.628, 362.042 456.613, 347.750 452.044 L 344 450.845 344 421.047 L 344 391.250 347.129 390.624 C 360.450 387.960, 379.142 372.474, 385.398 358.919 C 397.891 331.851, 391.980 302.629, 369.986 282.726 C 364.108 277.406, 355.121 271.933, 350 270.553 C 348.625 270.183, 350.650 271.463, 354.500 273.397 M 496.202 450.961 C 472.500 457.368, 453.911 477.016, 449.487 500.338 C 447.609 510.239, 447.612 516.023, 449.500 524.999 C 455.734 554.637, 478.419 573.964, 509 575.693 C 545.829 577.774, 575.897 549.165, 575.983 511.960 C 576.008 501.028, 571.791 486.885, 566.603 480.500 C 565.709 479.400, 566.540 481.650, 568.449 485.500 C 585.997 520.877, 566.188 563.105, 527.391 573.028 C 499.267 580.221, 468.643 566.421, 456.135 540.919 C 445.207 518.638, 447.125 495.697, 461.613 475.394 C 466.431 468.642, 476.297 460.437, 484.831 456.085 C 496.450 450.160, 513.773 448.461, 527.040 451.944 C 535.704 454.219, 537.610 453.891, 529.849 451.462 C 521.396 448.816, 505.039 448.572, 496.202 450.961 M 682 450.599 C 668.531 453.495, 654.054 462.867, 645.414 474.284 C 640.129 481.268, 635.345 490.747, 634.455 496 C 634.087 498.171, 634.770 497.024, 636.254 492.980 C 640.989 480.075, 649.011 469.638, 660.406 461.557 C 668.247 455.996, 674.185 453.354, 683.020 451.496 C 702.252 447.450, 721.115 452.158, 736.298 464.794 C 765.153 488.809, 766.193 532.516, 738.512 557.815 C 703.354 589.948, 647.843 574.392, 635.382 528.915 C 634.198 524.590, 633.611 518.753, 633.582 511 C 633.544 500.634, 633.449 500.042, 632.626 505 C 631.486 511.865, 633.127 526.082, 636.056 534.723 C 638.364 541.532, 644.410 551.595, 649.350 556.851 C 651.083 558.693, 655.121 561.996, 658.325 564.189 C 673.907 574.855, 692.970 578.484, 710.234 574.068 C 735.205 567.682, 753.395 549.062, 758.417 524.746 C 761.415 510.234, 759.758 498.056, 752.872 484 C 749.632 477.385, 747.022 473.835, 741.104 467.989 C 725.080 452.162, 703.819 445.907, 682 450.599 M 304 453.865 C 283.832 461.803, 266.918 483.545, 265.514 503.338 L 265.076 509.500 266.027 503.547 C 267.302 495.569, 268.597 491.744, 272.703 483.830 C 279.253 471.206, 292.746 459.192, 306 454.183 C 309.025 453.040, 310.825 452.102, 310 452.099 C 309.175 452.096, 306.475 452.891, 304 453.865 M 265.122 519.040 C 264.939 524.345, 267.584 533.588, 271.693 541.999 C 276.594 552.035, 288.573 564.106, 298.261 568.774 C 315.569 577.113, 336.198 577.988, 352.342 571.068 L 356.729 569.187 406.362 618.844 C 433.660 646.155, 455.996 668.253, 455.997 667.950 C 455.999 667.648, 433.820 645.057, 406.710 617.747 L 357.421 568.093 348.776 571.073 C 321.944 580.322, 292.804 571.310, 277.063 548.895 C 271.629 541.157, 267.393 530.573, 266.099 521.500 C 265.480 517.157, 265.210 516.478, 265.122 519.040 M 311 635.342 C 297.082 639.491, 286.755 646.290, 278.475 656.758 C 270.164 667.265, 265.782 678.756, 264.652 693 C 264.079 700.230, 264.836 697.403, 266.984 684.301 C 267.643 680.280, 269.693 673.911, 271.629 669.871 C 282.336 647.530, 303.768 634, 328.450 634 C 352.946 634, 375.671 649.027, 385.614 671.800 C 387.463 676.035, 388.981 678.765, 388.988 677.866 C 388.995 676.967, 387.117 672.469, 384.815 667.870 C 376.903 652.063, 360.337 638.987, 342.540 634.502 C 333.710 632.277, 320.067 632.640, 311 635.342 M 515 633.943 C 525.722 634.612, 528.582 635.174, 535.108 637.896 C 545.243 642.122, 551.287 646.073, 557.417 652.480 C 572.469 668.211, 578.381 690.191, 573.139 710.922 C 565.278 742.008, 533.841 763.105, 502.954 758.023 C 478.615 754.019, 459.595 738.024, 451.794 715 C 450.458 711.057, 450.080 710.491, 450.461 713 C 450.752 714.925, 452.859 720.325, 455.141 725 C 462.505 740.082, 476.465 751.734, 493.365 756.905 C 518.295 764.534, 545.188 756.348, 561.376 736.203 C 571.377 723.759, 576.015 710.775, 575.985 695.303 C 575.955 679.404, 569.498 663.564, 558.522 652.460 C 550.785 644.634, 545.010 640.748, 535.312 636.845 C 528.218 633.990, 526.351 633.676, 515 633.432 L 502.500 633.163 515 633.943 M 682 634.405 C 657.250 640.329, 638.558 659.603, 633.398 684.521 C 628.349 708.905, 639.539 735.240, 660.869 749.174 C 671.842 756.342, 681.876 759.309, 695.500 759.415 C 705.099 759.489, 707.637 759.127, 715.431 756.573 C 735.673 749.939, 750.970 734.553, 757.260 714.500 C 760.341 704.679, 760.327 687.487, 757.230 677.489 C 751.445 658.815, 737.686 644.335, 718.632 636.867 C 711.449 634.052, 709.158 633.646, 699 633.384 C 691.907 633.202, 685.392 633.593, 682 634.405 M 491.757 636.422 C 485.714 638.555, 476 643.504, 476 644.450 C 476 644.652, 479.071 643.241, 482.825 641.315 C 486.578 639.389, 492.541 636.987, 496.075 635.978 C 499.609 634.968, 501.600 634.120, 500.500 634.092 C 499.400 634.065, 495.466 635.113, 491.757 636.422 M 680.435 635.963 C 671.221 638.379, 665.990 640.926, 657.754 647.005 C 641.832 658.757, 631.818 680.481, 633.325 700 C 634.498 715.180, 640.154 728.068, 650.314 738.712 C 657.909 746.668, 666.426 752.164, 676.500 755.611 C 683.403 757.972, 686.076 758.347, 696 758.343 C 705.907 758.339, 708.604 757.960, 715.472 755.607 C 726.496 751.829, 733.526 747.285, 741.774 738.601 C 757.297 722.260, 762.648 699.217, 755.949 677.559 C 752.748 667.212, 748.483 660.345, 740.066 651.986 C 731.802 643.778, 722.541 638.490, 711.356 635.592 C 703.136 633.462, 689.340 633.628, 680.435 635.963 M 452.954 671.611 C 448.931 682.156, 447.265 695.338, 448.861 704 C 449.841 709.316, 449.856 709.244, 449.329 701.853 C 448.721 693.321, 450.277 682.042, 453.093 674.560 C 454.116 671.842, 454.751 669.417, 454.504 669.171 C 454.258 668.924, 453.560 670.023, 452.954 671.611 M 389.653 683 C 390.017 684.925, 390.662 690.550, 391.086 695.500 L 391.857 704.500 391.514 694.500 C 391.326 689, 390.681 683.375, 390.081 682 C 389.107 679.768, 389.061 679.875, 389.653 683 M 265.090 703.040 C 264.866 711.883, 271.308 727.284, 279.372 737.184 C 290.259 750.549, 310.664 760, 328.630 760 C 348.174 760, 369.860 748.405, 381.002 731.997 C 386.477 723.935, 391.056 712.179, 390.933 706.500 C 390.909 705.400, 390.049 707.707, 389.021 711.627 C 382.721 735.656, 364.650 752.565, 339.913 757.578 C 319.905 761.632, 298.974 755.037, 283.943 739.943 C 274.635 730.596, 268.803 719.676, 266.616 707.500 C 265.689 702.334, 265.148 700.754, 265.090 703.040" stroke="none" fill="#242e45" fill-rule="evenodd"/><path d="M 504 267.043 C 505.154 267.902, 504.474 268.041, 501.052 267.648 C 497.906 267.287, 497.028 267.431, 498.052 268.139 C 499.119 268.878, 498.659 269.039, 496.303 268.752 C 494.544 268.537, 493.313 268.698, 493.567 269.109 C 494.225 270.174, 490.249 271.272, 488.854 270.410 C 488.081 269.932, 487.962 270.130, 488.502 271.003 C 489.106 271.980, 488.762 272.171, 487.155 271.751 C 485.759 271.386, 485.232 271.566, 485.663 272.263 C 486.088 272.951, 485.708 273.102, 484.612 272.681 C 483.456 272.238, 483.130 272.401, 483.612 273.181 C 484.107 273.982, 483.746 274.117, 482.445 273.617 C 481.409 273.220, 480.882 273.215, 481.274 273.607 C 482.210 274.543, 478.274 277.288, 477.067 276.542 C 476.556 276.226, 475.813 276.494, 475.415 277.138 C 474.926 277.929, 475.147 278.049, 476.095 277.508 C 477.160 276.901, 477.229 277.001, 476.381 277.923 C 475.765 278.591, 474.640 279.233, 473.881 279.347 C 471.768 279.667, 469.912 281.048, 470.442 281.907 C 470.703 282.329, 469.136 284.414, 466.959 286.540 C 464.781 288.666, 463 290.034, 463 289.581 C 463 289.127, 462.352 289.293, 461.559 289.951 C 460.767 290.608, 460.348 291.743, 460.628 292.472 C 460.907 293.201, 460.586 294.138, 459.914 294.553 C 459.065 295.078, 458.940 294.879, 459.506 293.905 C 459.988 293.073, 459.949 292.840, 459.410 293.333 C 458.910 293.792, 458.444 294.579, 458.375 295.083 C 458.306 295.587, 458.194 296.477, 458.125 297.059 C 458.056 297.641, 457.555 297.843, 457.011 297.507 C 456.424 297.144, 456.290 297.593, 456.681 298.612 C 457.125 299.769, 456.962 300.095, 456.181 299.612 C 455.401 299.130, 455.238 299.456, 455.681 300.612 C 456.125 301.769, 455.962 302.095, 455.181 301.612 C 454.401 301.130, 454.238 301.456, 454.681 302.612 C 455.164 303.868, 454.985 304.109, 454.015 303.510 C 453.131 302.963, 452.930 303.077, 453.410 303.854 C 454.312 305.314, 453.150 309.211, 452.021 308.513 C 451.562 308.229, 451.440 308.968, 451.751 310.155 C 452.084 311.431, 451.916 312.066, 451.338 311.709 C 450.754 311.348, 450.518 312.388, 450.752 314.303 C 451.039 316.659, 450.878 317.119, 450.139 316.052 C 449.425 315.019, 449.256 315.879, 449.552 319.052 C 449.811 321.822, 449.690 322.628, 449.234 321.189 C 448.819 319.883, 448.500 323.326, 448.500 329.098 C 448.500 334.719, 448.676 338.459, 448.892 337.409 C 449.107 336.359, 449.894 338.425, 450.641 342 C 451.387 345.575, 451.779 349.086, 451.511 349.802 C 451.242 350.518, 451.435 350.849, 451.939 350.537 C 453.128 349.803, 454.349 353.627, 453.410 355.146 C 452.930 355.923, 453.131 356.037, 454.015 355.490 C 454.985 354.891, 455.164 355.132, 454.681 356.388 C 454.238 357.544, 454.401 357.870, 455.181 357.388 C 455.962 356.905, 456.125 357.231, 455.681 358.388 C 455.238 359.544, 455.401 359.870, 456.181 359.388 C 456.962 358.905, 457.125 359.231, 456.681 360.388 C 456.238 361.544, 456.401 361.870, 457.181 361.388 C 457.951 360.913, 458.129 361.220, 457.714 362.304 C 457.369 363.202, 457.587 364.245, 458.198 364.622 C 458.936 365.079, 459.025 364.838, 458.463 363.905 C 457.742 362.708, 457.867 362.704, 459.308 363.872 C 461.200 365.407, 461.648 367.518, 459.845 366.405 C 459.124 365.959, 458.963 366.131, 459.415 366.862 C 459.813 367.506, 460.506 367.805, 460.956 367.527 C 462.045 366.854, 464.324 369.667, 463.617 370.811 C 462.922 371.936, 467.404 376.263, 468.318 375.349 C 469.182 374.485, 473.112 378.010, 472.460 379.065 C 472.189 379.503, 472.494 380.187, 473.138 380.585 C 473.912 381.063, 474.040 380.873, 473.515 380.025 C 472.986 379.169, 473.185 378.895, 474.111 379.204 C 474.875 379.458, 475.500 380.304, 475.500 381.082 C 475.500 381.860, 476.175 382.524, 477 382.556 C 479.429 382.651, 482.033 384.138, 481.442 385.093 C 481.142 385.579, 481.668 385.681, 482.612 385.319 C 483.769 384.875, 484.095 385.038, 483.612 385.819 C 483.130 386.599, 483.456 386.762, 484.612 386.319 C 485.708 385.898, 486.088 386.049, 485.663 386.737 C 485.232 387.434, 485.759 387.614, 487.155 387.249 C 488.538 386.888, 489.076 387.067, 488.655 387.749 C 488.236 388.427, 488.815 388.634, 490.249 388.320 C 491.783 387.984, 492.093 388.117, 491.222 388.739 C 490.349 389.364, 490.981 389.648, 493.222 389.640 C 495.025 389.633, 499.650 390.192, 503.500 390.882 C 511.772 392.364, 521.723 391.617, 530.770 388.835 C 534.219 387.775, 537.551 387.223, 538.175 387.608 C 538.922 388.070, 539.030 387.857, 538.490 386.985 C 537.891 386.015, 538.132 385.836, 539.388 386.319 C 540.544 386.762, 540.870 386.599, 540.388 385.819 C 539.905 385.038, 540.231 384.875, 541.388 385.319 C 542.544 385.762, 542.870 385.599, 542.388 384.819 C 541.905 384.038, 542.231 383.875, 543.388 384.319 C 544.544 384.762, 544.870 384.599, 544.388 383.819 C 543.913 383.049, 544.220 382.871, 545.304 383.286 C 546.202 383.631, 547.245 383.413, 547.622 382.802 C 548.079 382.064, 547.838 381.975, 546.905 382.537 C 545.708 383.258, 545.704 383.133, 546.872 381.692 C 548.407 379.800, 550.518 379.352, 549.405 381.155 C 548.959 381.876, 549.131 382.037, 549.862 381.585 C 550.506 381.187, 550.805 380.494, 550.527 380.044 C 549.874 378.987, 552.838 376.505, 553.711 377.378 C 554.690 378.356, 561.921 370.957, 561.375 369.535 C 561.119 368.867, 561.691 367.686, 562.646 366.910 C 564.159 365.682, 564.270 365.694, 563.500 367 C 562.738 368.294, 562.849 368.311, 564.308 367.128 C 566.212 365.583, 566.602 364.510, 564.870 365.580 C 564.178 366.008, 563.936 365.740, 564.245 364.889 C 564.523 364.125, 565.290 363.624, 565.949 363.775 C 566.609 363.926, 566.869 363.598, 566.528 363.045 C 565.625 361.584, 567.903 357.822, 569.205 358.627 C 569.891 359.050, 570.025 358.849, 569.558 358.094 C 568.697 356.700, 570.854 350.792, 571.972 351.482 C 572.378 351.734, 572.516 350.716, 572.277 349.220 C 571.935 347.076, 572.072 346.818, 572.920 348 C 573.738 349.138, 573.857 348.656, 573.414 346 C 573.087 344.034, 573.197 343.001, 573.666 343.643 C 574.137 344.289, 574.616 340.376, 574.768 334.643 C 574.915 329.064, 575.280 323.150, 575.579 321.500 C 576.012 319.106, 575.890 318.803, 574.978 320 C 574.082 321.175, 573.955 320.632, 574.389 317.500 C 574.799 314.538, 574.671 313.889, 573.893 315 C 573.076 316.167, 572.940 315.897, 573.277 313.780 C 573.544 312.105, 573.322 311.301, 572.698 311.687 C 572.077 312.070, 571.903 311.477, 572.249 310.155 C 572.611 308.772, 572.431 308.234, 571.749 308.655 C 571.067 309.076, 570.888 308.538, 571.249 307.155 C 571.614 305.759, 571.434 305.232, 570.737 305.663 C 570.049 306.088, 569.898 305.708, 570.319 304.612 C 570.762 303.456, 570.599 303.130, 569.819 303.612 C 569.038 304.095, 568.875 303.769, 569.319 302.612 C 569.691 301.643, 569.569 301.148, 569.039 301.476 C 567.856 302.207, 565.692 298.308, 566.528 296.955 C 566.869 296.402, 566.553 296.074, 565.824 296.225 C 565.075 296.381, 564.499 295.631, 564.499 294.500 C 564.498 293.391, 563.829 292.499, 562.999 292.497 C 562.174 292.496, 561.495 291.720, 561.489 290.772 C 561.483 289.824, 560.598 288.251, 559.522 287.275 C 557.591 285.522, 557.590 285.528, 559.438 287.750 C 562.715 291.689, 560.578 290.172, 555.958 285.278 C 553.506 282.682, 552.625 281.444, 554 282.528 L 556.500 284.500 554.616 282.274 C 553.580 281.049, 552.409 280.247, 552.014 280.492 C 551.618 280.736, 550.441 280.242, 549.397 279.394 C 548.354 278.546, 548.132 278.180, 548.905 278.580 C 549.805 279.048, 550.063 278.911, 549.622 278.198 C 549.245 277.587, 548.321 277.323, 547.569 277.612 C 546.817 277.900, 545.862 277.586, 545.447 276.914 C 544.932 276.080, 545.108 275.949, 546 276.500 C 546.848 277.024, 547.067 276.918, 546.622 276.198 C 546.245 275.587, 545.202 275.369, 544.304 275.714 C 543.125 276.166, 542.899 275.972, 543.490 275.015 C 544.015 274.167, 543.921 273.931, 543.229 274.358 C 541.867 275.201, 536.882 273, 537.583 271.865 C 537.870 271.402, 537.332 271.319, 536.388 271.681 C 535.292 272.102, 534.912 271.951, 535.337 271.263 C 535.768 270.566, 535.241 270.386, 533.845 270.751 C 532.462 271.112, 531.924 270.933, 532.345 270.251 C 532.766 269.569, 532.228 269.389, 530.845 269.751 C 529.330 270.147, 528.908 269.958, 529.427 269.117 C 529.967 268.244, 529.428 268.105, 527.435 268.606 C 525.896 268.992, 524.941 268.900, 525.249 268.396 C 525.551 267.902, 522.183 267.425, 517.742 267.332 C 513.311 267.239, 508.070 266.885, 506.093 266.545 C 503.315 266.066, 502.840 266.179, 504 267.043 M 688 267.052 C 689.162 267.915, 688.649 268.048, 685.728 267.642 C 683.136 267.282, 682.167 267.462, 682.633 268.215 C 683.102 268.974, 682.260 269.110, 679.905 268.657 C 677.857 268.264, 677.036 268.348, 677.845 268.869 C 678.842 269.511, 678.506 269.907, 676.549 270.398 C 675.096 270.763, 673.409 270.753, 672.800 270.376 C 672.082 269.932, 671.977 270.153, 672.502 271.003 C 673.106 271.980, 672.762 272.171, 671.155 271.751 C 669.759 271.386, 669.232 271.566, 669.663 272.263 C 670.088 272.951, 669.708 273.102, 668.612 272.681 C 667.456 272.238, 667.130 272.401, 667.612 273.181 C 668.089 273.953, 667.777 274.128, 666.676 273.706 C 665.657 273.315, 665.115 273.537, 665.262 274.286 C 665.393 274.954, 664.717 275.438, 663.761 275.363 C 662.772 275.285, 662.303 275.682, 662.675 276.283 C 663.079 276.937, 662.707 277.101, 661.696 276.714 C 660.798 276.369, 659.755 276.587, 659.378 277.198 C 658.933 277.918, 659.152 278.024, 660 277.500 C 660.892 276.949, 661.068 277.080, 660.553 277.914 C 660.138 278.586, 659.201 278.907, 658.472 278.628 C 657.743 278.348, 656.608 278.767, 655.951 279.559 C 655.293 280.352, 655.129 281, 655.586 281 C 656.043 281, 654.452 283.001, 652.051 285.448 C 649.651 287.894, 647.254 289.806, 646.726 289.698 C 646.198 289.589, 645.625 290.346, 645.452 291.381 C 645.280 292.415, 644.591 293.765, 643.923 294.381 C 643.001 295.229, 642.901 295.160, 643.508 294.095 C 644.033 293.175, 643.926 292.928, 643.198 293.378 C 642.587 293.755, 642.369 294.798, 642.714 295.696 C 643.101 296.707, 642.937 297.079, 642.283 296.675 C 641.682 296.303, 641.285 296.772, 641.363 297.761 C 641.439 298.723, 640.908 299.377, 640.176 299.225 C 639.442 299.073, 639.150 299.434, 639.522 300.036 C 640.461 301.555, 637.995 307.115, 636.729 306.333 C 636.143 305.970, 635.989 306.173, 636.376 306.800 C 636.753 307.409, 636.763 309.096, 636.398 310.549 C 635.907 312.506, 635.511 312.842, 634.869 311.845 C 634.340 311.024, 634.230 311.864, 634.586 314 C 634.913 315.964, 634.802 317.001, 634.334 316.362 C 633.859 315.714, 633.416 318.725, 633.304 323.362 C 633.196 327.838, 632.930 333.300, 632.713 335.500 C 632.495 337.700, 632.530 338.600, 632.791 337.500 C 633.077 336.288, 633.803 338.062, 634.631 342 C 635.383 345.575, 635.779 349.086, 635.511 349.802 C 635.215 350.590, 635.475 350.824, 636.169 350.396 C 636.949 349.914, 637.135 350.377, 636.751 351.845 C 636.440 353.032, 636.558 353.773, 637.013 353.492 C 637.467 353.211, 638.371 354.595, 639.022 356.567 C 640.092 359.808, 639.987 360.385, 637.932 362.572 C 636.682 363.903, 635.423 364.757, 635.136 364.469 C 634.415 363.748, 622.987 375.170, 623.538 376.061 C 624.121 377.005, 593.020 409.131, 592.084 408.552 C 591.687 408.306, 586.218 413.369, 579.931 419.803 L 568.500 431.500 580.500 420.003 C 588.660 412.184, 586.923 414.165, 575.070 426.193 C 565.484 435.921, 557.159 443.795, 556.570 443.690 C 555.982 443.586, 555.597 444.017, 555.717 444.650 C 555.836 445.282, 553.351 448.607, 550.194 452.039 C 545.402 457.250, 544.085 458.162, 542.213 457.568 C 540.980 457.176, 540.226 456.444, 540.537 455.939 C 540.850 455.434, 540.334 455.318, 539.388 455.681 C 538.231 456.125, 537.905 455.962, 538.388 455.181 C 538.856 454.425, 538.566 454.229, 537.552 454.618 C 536.698 454.946, 536 454.730, 536 454.138 C 536 453.546, 535.252 453.350, 534.336 453.701 C 533.128 454.165, 532.896 453.977, 533.490 453.015 C 534.041 452.124, 533.923 451.929, 533.130 452.420 C 531.700 453.303, 525.796 452.139, 526.438 451.100 C 526.689 450.694, 525.456 450.537, 523.697 450.752 C 521.859 450.976, 520.991 450.793, 521.655 450.321 C 522.289 449.869, 517.945 449.500, 512 449.500 C 505.983 449.500, 501.703 449.869, 502.345 450.333 C 502.991 450.799, 501.738 450.921, 499.500 450.611 C 496.526 450.199, 495.885 450.328, 497 451.113 C 498.123 451.903, 497.621 452.022, 495 451.586 C 492.330 451.141, 491.856 451.260, 493 452.088 C 494.211 452.965, 494.067 453.079, 492.249 452.680 C 490.815 452.366, 490.236 452.573, 490.655 453.251 C 491.076 453.933, 490.538 454.112, 489.155 453.751 C 487.759 453.386, 487.232 453.566, 487.663 454.263 C 488.088 454.951, 487.708 455.102, 486.612 454.681 C 485.456 454.238, 485.130 454.401, 485.612 455.181 C 486.095 455.962, 485.769 456.125, 484.612 455.681 C 483.456 455.238, 483.130 455.401, 483.612 456.181 C 484.095 456.962, 483.769 457.125, 482.612 456.681 C 481.456 456.238, 481.130 456.401, 481.612 457.181 C 482.087 457.951, 481.780 458.129, 480.696 457.714 C 479.798 457.369, 478.755 457.587, 478.378 458.198 C 477.921 458.936, 478.162 459.025, 479.095 458.463 C 480.292 457.742, 480.296 457.867, 479.128 459.308 C 477.544 461.261, 475.529 461.613, 476.601 459.750 C 477.019 459.024, 476.939 458.849, 476.410 459.333 C 475.910 459.792, 475.489 460.692, 475.476 461.333 C 475.463 461.975, 474.680 462.438, 473.737 462.363 C 472.793 462.288, 472.237 462.574, 472.500 463 C 473.083 463.943, 470.642 466.083, 468.651 466.375 C 466.688 466.663, 463.914 469.051, 464.479 469.966 C 464.730 470.373, 464.242 471.559, 463.394 472.603 C 462.546 473.646, 462.182 473.825, 462.586 473 C 463.011 472.133, 462.942 471.846, 462.423 472.321 C 461.929 472.772, 461.520 473.896, 461.513 474.818 C 461.506 475.740, 460.826 476.496, 460.001 476.497 C 459.177 476.499, 458.476 477.175, 458.444 478 C 458.349 480.429, 456.862 483.033, 455.907 482.442 C 455.421 482.142, 455.319 482.668, 455.681 483.612 C 456.125 484.769, 455.962 485.095, 455.181 484.612 C 454.401 484.130, 454.238 484.456, 454.681 485.612 C 455.164 486.868, 454.985 487.109, 454.015 486.510 C 453.131 485.963, 452.930 486.077, 453.410 486.854 C 454.312 488.314, 453.150 492.211, 452.021 491.513 C 451.562 491.229, 451.440 491.968, 451.751 493.155 C 452.171 494.762, 451.980 495.106, 451.003 494.502 C 450.148 493.973, 449.932 494.081, 450.384 494.813 C 450.766 495.430, 450.753 498.312, 450.356 501.217 C 449.833 505.045, 449.478 505.863, 449.067 504.188 C 448.755 502.916, 448.500 506.609, 448.500 512.394 C 448.500 518.179, 448.770 522.146, 449.100 521.210 C 449.470 520.158, 449.971 521.320, 450.410 524.251 C 450.802 526.860, 450.800 529.515, 450.406 530.152 C 449.932 530.919, 450.133 531.036, 451.003 530.498 C 451.980 529.894, 452.171 530.238, 451.751 531.845 C 451.389 533.228, 451.569 533.766, 452.251 533.345 C 452.933 532.924, 453.112 533.462, 452.751 534.845 C 452.386 536.241, 452.566 536.768, 453.263 536.337 C 453.951 535.912, 454.102 536.292, 453.681 537.388 C 453.238 538.544, 453.401 538.870, 454.181 538.388 C 454.962 537.905, 455.125 538.231, 454.681 539.388 C 454.319 540.332, 454.421 540.858, 454.907 540.558 C 456.043 539.855, 457.213 542.846, 456.349 544.245 C 455.931 544.921, 456.174 545.010, 457.015 544.490 C 457.975 543.897, 458.165 544.127, 457.706 545.324 C 457.315 546.343, 457.537 546.885, 458.286 546.738 C 458.954 546.607, 459.432 547.318, 459.350 548.317 C 459.267 549.316, 459.451 549.882, 459.758 549.575 C 460.458 548.876, 463 550.919, 463 552.181 C 463 552.697, 462.438 552.780, 461.750 552.367 C 460.890 551.851, 460.926 552.141, 461.863 553.297 C 462.613 554.222, 463.557 554.774, 463.960 554.525 C 464.364 554.275, 465.972 555.405, 467.534 557.036 C 469.096 558.666, 469.975 560, 469.487 560 C 468.999 560, 469.157 560.557, 469.838 561.238 C 470.520 561.920, 471.847 562.482, 472.788 562.488 C 473.730 562.495, 474.405 563.010, 474.289 563.632 C 474.173 564.255, 474.848 564.705, 475.789 564.632 C 476.730 564.560, 477.393 565.046, 477.262 565.714 C 477.115 566.463, 477.657 566.685, 478.676 566.294 C 479.873 565.835, 480.103 566.025, 479.510 566.985 C 478.983 567.836, 479.079 568.069, 479.777 567.638 C 481.065 566.842, 488.120 569.996, 487.456 571.072 C 487.204 571.480, 487.968 571.560, 489.155 571.249 C 490.538 570.888, 491.076 571.067, 490.655 571.749 C 490.234 572.431, 490.772 572.611, 492.155 572.249 C 493.762 571.829, 494.106 572.020, 493.502 572.997 C 492.960 573.873, 493.080 574.068, 493.863 573.585 C 494.508 573.186, 498.290 573.329, 502.268 573.901 C 509.586 574.954, 526.173 576.024, 522.517 575.207 C 521.324 574.940, 523.374 574.043, 527.670 572.952 C 531.595 571.955, 536.665 570.191, 538.937 569.032 C 541.210 567.873, 543.573 567.236, 544.189 567.617 C 544.922 568.070, 545.026 567.851, 544.490 566.985 C 543.897 566.025, 544.127 565.835, 545.324 566.294 C 546.343 566.685, 546.885 566.463, 546.738 565.714 C 546.607 565.046, 547.283 564.562, 548.239 564.637 C 549.196 564.712, 549.746 564.398, 549.461 563.937 C 549.177 563.477, 549.857 562.612, 550.972 562.015 C 552.087 561.418, 553 561.226, 553 561.587 C 553 561.949, 553.670 561.689, 554.489 561.009 C 555.308 560.329, 555.772 559.440, 555.520 559.032 C 555.268 558.624, 556.173 557.247, 557.531 555.971 C 558.889 554.695, 560 554.010, 560 554.448 C 560 554.886, 560.648 554.707, 561.441 554.049 C 562.233 553.392, 562.652 552.257, 562.372 551.528 C 562.093 550.799, 562.414 549.862, 563.086 549.447 C 563.868 548.963, 564.052 549.107, 563.595 549.845 C 562.513 551.597, 563.572 551.225, 565.128 549.308 C 566.292 547.872, 566.291 547.742, 565.120 548.447 C 564.161 549.025, 563.894 548.855, 564.245 547.889 C 564.523 547.125, 565.290 546.624, 565.949 546.775 C 566.609 546.926, 566.882 546.618, 566.556 546.090 C 565.708 544.718, 570.154 535.977, 571.330 536.704 C 571.868 537.037, 572.021 536.843, 571.669 536.274 C 571.318 535.705, 571.870 531.931, 572.897 527.887 C 573.989 523.584, 574.940 521.357, 575.189 522.517 C 576.060 526.579, 574.896 507.283, 573.944 501.891 C 573.400 498.806, 573.232 495.431, 573.572 494.391 C 574.094 492.790, 574.007 492.730, 573.008 494 C 572.023 495.250, 571.909 495.125, 572.320 493.249 C 572.591 492.010, 572.438 491.229, 571.979 491.513 C 570.850 492.211, 569.688 488.314, 570.590 486.854 C 571.070 486.077, 570.869 485.963, 569.985 486.510 C 569.015 487.109, 568.836 486.868, 569.319 485.612 C 569.694 484.635, 569.570 484.148, 569.031 484.481 C 567.969 485.137, 565.318 480.314, 565.469 478 C 565.523 477.175, 565.173 476.223, 564.691 475.884 C 563.900 475.327, 568.042 471.745, 570.500 470.860 C 571.050 470.662, 571.381 470.142, 571.234 469.703 C 570.876 468.629, 591.080 447.931, 591.958 448.474 C 592.905 449.059, 606.213 435.546, 605.445 434.779 C 604.683 434.017, 622.024 415.897, 622.961 416.476 C 623.989 417.112, 643.331 397.351, 643.622 395.367 C 643.762 394.417, 647.201 390.315, 651.265 386.252 L 658.653 378.863 662.325 381.029 C 664.345 382.221, 665.749 383.597, 665.447 384.086 C 665.144 384.576, 665.668 384.681, 666.612 384.319 C 667.769 383.875, 668.095 384.038, 667.612 384.819 C 667.130 385.599, 667.456 385.762, 668.612 385.319 C 669.769 384.875, 670.095 385.038, 669.612 385.819 C 669.130 386.599, 669.456 386.762, 670.612 386.319 C 671.769 385.875, 672.095 386.038, 671.612 386.819 C 671.178 387.521, 671.408 387.798, 672.198 387.521 C 672.914 387.270, 676.411 387.880, 679.969 388.876 C 683.527 389.872, 685.885 390.872, 685.209 391.097 C 682.104 392.132, 707.001 391.160, 710.799 390.098 C 713.164 389.437, 716.089 389.174, 717.299 389.514 C 719.107 390.021, 719.232 389.925, 718 388.979 C 716.761 388.027, 716.891 387.912, 718.751 388.320 C 720.200 388.637, 720.765 388.429, 720.337 387.737 C 719.912 387.049, 720.292 386.898, 721.388 387.319 C 722.544 387.762, 722.870 387.599, 722.388 386.819 C 721.905 386.038, 722.231 385.875, 723.388 386.319 C 724.544 386.762, 724.870 386.599, 724.388 385.819 C 723.905 385.038, 724.231 384.875, 725.388 385.319 C 726.544 385.762, 726.870 385.599, 726.388 384.819 C 725.905 384.038, 726.231 383.875, 727.388 384.319 C 728.544 384.762, 728.870 384.599, 728.388 383.819 C 727.911 383.047, 728.223 382.872, 729.324 383.294 C 730.343 383.685, 730.885 383.463, 730.738 382.714 C 730.607 382.046, 731.283 381.562, 732.239 381.637 C 733.196 381.712, 733.763 381.426, 733.500 381 C 732.919 380.059, 735.450 377.817, 736.645 378.215 C 737.115 378.372, 737.633 378.050, 737.796 377.500 C 738.314 375.751, 744.254 370.091, 745.353 370.299 C 745.934 370.410, 746.468 370.050, 746.541 369.500 C 746.823 367.363, 748.247 365.035, 748.992 365.495 C 749.422 365.761, 749.712 365.196, 749.637 364.239 C 749.562 363.283, 750.046 362.607, 750.714 362.738 C 751.463 362.885, 751.685 362.343, 751.294 361.324 C 750.872 360.223, 751.047 359.911, 751.819 360.388 C 752.599 360.870, 752.762 360.544, 752.319 359.388 C 751.875 358.231, 752.038 357.905, 752.819 358.388 C 753.599 358.870, 753.762 358.544, 753.319 357.388 C 752.836 356.132, 753.015 355.891, 753.985 356.490 C 754.857 357.030, 755.070 356.922, 754.608 356.175 C 753.541 354.448, 756.123 346.621, 757.234 348.214 C 757.827 349.065, 757.925 348.764, 757.523 347.328 C 757.188 346.133, 757.359 342.308, 757.901 338.828 C 759.371 329.404, 760.007 318.944, 758.925 322 C 758.248 323.911, 758.127 323.348, 758.412 319.615 C 758.669 316.244, 758.482 315.159, 757.808 316.115 C 757.132 317.074, 757.011 316.424, 757.414 314 C 757.748 311.999, 757.642 311.051, 757.168 311.786 C 756.122 313.405, 753.578 305.491, 754.608 303.825 C 755.028 303.145, 754.864 302.966, 754.197 303.378 C 752.822 304.228, 749.637 298.396, 750.614 296.816 C 751.038 296.130, 750.859 295.969, 750.155 296.405 C 749.106 297.052, 748.536 295.806, 748.906 293.676 C 748.985 293.222, 748.611 293.122, 748.075 293.454 C 747.273 293.949, 744.278 290.068, 744.831 289.250 C 744.924 289.113, 744.811 289.113, 744.581 289.250 C 743.833 289.696, 739.047 284.732, 739.507 283.988 C 739.752 283.592, 739.063 282.462, 737.976 281.479 C 736.889 280.495, 736 280.001, 736 280.380 C 736 280.760, 735.087 280.582, 733.972 279.985 C 732.857 279.388, 732.177 278.523, 732.461 278.063 C 732.746 277.602, 732.196 277.288, 731.239 277.363 C 730.283 277.438, 729.607 276.954, 729.738 276.286 C 729.885 275.537, 729.343 275.315, 728.324 275.706 C 727.127 276.165, 726.897 275.975, 727.490 275.015 C 728.015 274.167, 727.921 273.931, 727.229 274.358 C 725.867 275.201, 720.882 273, 721.583 271.865 C 721.870 271.402, 721.332 271.319, 720.388 271.681 C 719.292 272.102, 718.912 271.951, 719.337 271.263 C 719.768 270.566, 719.241 270.386, 717.845 270.751 C 716.462 271.112, 715.924 270.933, 716.345 270.251 C 716.766 269.569, 716.228 269.389, 714.845 269.751 C 713.381 270.134, 712.914 269.948, 713.393 269.173 C 713.892 268.365, 713.131 268.197, 710.800 268.599 C 708.937 268.920, 707.995 268.805, 708.635 268.334 C 709.278 267.862, 705.809 267.406, 700.635 267.282 C 695.611 267.163, 690.375 266.811, 689 266.502 C 686.999 266.052, 686.800 266.162, 688 267.052 M 314.329 268.311 C 315.015 268.798, 314.176 268.980, 312.303 268.752 C 310.501 268.532, 309.355 268.766, 309.678 269.288 C 310.011 269.827, 309.308 269.915, 308 269.500 C 306.324 268.968, 305.949 269.108, 306.531 270.050 C 307.100 270.971, 306.726 271.162, 305.155 270.751 C 303.759 270.386, 303.232 270.566, 303.663 271.263 C 304.088 271.951, 303.708 272.102, 302.612 271.681 C 301.456 271.238, 301.130 271.401, 301.612 272.181 C 302.095 272.962, 301.769 273.125, 300.612 272.681 C 299.456 272.238, 299.130 272.401, 299.612 273.181 C 300.095 273.962, 299.769 274.125, 298.612 273.681 C 297.643 273.309, 297.148 273.431, 297.476 273.961 C 298.177 275.096, 294.335 277.325, 293.048 276.530 C 292.548 276.221, 291.813 276.494, 291.415 277.138 C 290.926 277.929, 291.147 278.049, 292.095 277.508 C 293.160 276.901, 293.229 277.001, 292.381 277.923 C 291.765 278.591, 290.640 279.233, 289.881 279.347 C 287.768 279.667, 285.912 281.048, 286.442 281.907 C 286.982 282.780, 279.245 290.648, 278.264 290.223 C 277.913 290.070, 277.516 290.691, 277.382 291.603 C 277.248 292.515, 276.591 293.765, 275.923 294.381 C 275.001 295.229, 274.901 295.160, 275.508 294.095 C 276.033 293.175, 275.926 292.928, 275.198 293.378 C 274.587 293.755, 274.369 294.798, 274.714 295.696 C 275.129 296.780, 274.951 297.087, 274.181 296.612 C 273.401 296.130, 273.238 296.456, 273.681 297.612 C 274.176 298.901, 273.987 299.123, 272.920 298.504 C 272.139 298.050, 271.801 298.015, 272.168 298.425 C 273.110 299.475, 270.998 305.117, 269.914 304.447 C 269.424 304.144, 269.319 304.668, 269.681 305.612 C 270.164 306.868, 269.985 307.109, 269.015 306.510 C 268.119 305.956, 267.929 306.076, 268.428 306.884 C 268.834 307.540, 268.593 310.310, 267.893 313.040 C 267.193 315.771, 266.330 317.534, 265.975 316.959 C 265.619 316.384, 265.459 318.520, 265.618 321.707 C 265.824 325.802, 265.690 326.621, 265.161 324.500 C 264.657 322.476, 264.426 324.211, 264.451 329.833 C 264.474 334.932, 264.777 337.260, 265.230 335.833 C 265.666 334.462, 265.804 335.769, 265.566 339 C 265.276 342.934, 265.427 343.930, 266.098 342.500 C 266.808 340.988, 266.932 341.476, 266.610 344.500 C 266.375 346.700, 266.428 347.867, 266.727 347.093 C 267.048 346.264, 268.039 347.701, 269.140 350.593 C 270.168 353.292, 270.787 356.086, 270.516 356.802 C 270.215 357.598, 270.473 357.826, 271.181 357.388 C 271.962 356.905, 272.125 357.231, 271.681 358.388 C 271.238 359.544, 271.401 359.870, 272.181 359.388 C 272.962 358.905, 273.125 359.231, 272.681 360.388 C 272.238 361.544, 272.401 361.870, 273.181 361.388 C 273.951 360.913, 274.129 361.220, 273.714 362.304 C 273.369 363.202, 273.587 364.245, 274.198 364.622 C 274.918 365.067, 275.024 364.848, 274.500 364 C 273.949 363.108, 274.080 362.932, 274.914 363.447 C 275.586 363.862, 275.900 364.817, 275.612 365.569 C 275.323 366.321, 275.587 367.245, 276.198 367.622 C 276.936 368.079, 277.025 367.838, 276.463 366.905 C 275.740 365.705, 275.865 365.702, 277.321 366.883 C 278.259 367.644, 278.908 368.994, 278.763 369.883 C 278.618 370.773, 278.996 371.410, 279.602 371.299 C 280.716 371.097, 287.712 377.734, 287.250 378.556 C 287.113 378.800, 287.113 378.924, 287.250 378.831 C 288.149 378.223, 291.925 381.313, 291.373 382.205 C 290.966 382.864, 291.148 383.027, 291.825 382.608 C 293.272 381.714, 297.247 383.791, 296.476 385.039 C 296.148 385.569, 296.643 385.691, 297.612 385.319 C 298.769 384.875, 299.095 385.038, 298.612 385.819 C 298.130 386.599, 298.456 386.762, 299.612 386.319 C 300.769 385.875, 301.095 386.038, 300.612 386.819 C 300.130 387.599, 300.456 387.762, 301.612 387.319 C 302.708 386.898, 303.088 387.049, 302.663 387.737 C 302.232 388.434, 302.759 388.614, 304.155 388.249 C 305.623 387.865, 306.086 388.051, 305.604 388.831 C 305.149 389.567, 305.436 389.770, 306.407 389.397 C 307.238 389.079, 309.511 389.344, 311.459 389.986 L 315 391.155 315 421.078 C 315 451.922, 315.043 451.586, 311.150 451.052 C 310.321 450.938, 310.091 451.339, 310.556 452.091 C 311.096 452.964, 310.693 453.153, 309.155 452.751 C 307.772 452.389, 307.234 452.569, 307.655 453.251 C 308.076 453.933, 307.538 454.112, 306.155 453.751 C 304.968 453.440, 304.229 453.562, 304.513 454.021 C 305.211 455.150, 301.314 456.312, 299.854 455.410 C 299.149 454.974, 298.960 455.126, 299.373 455.795 C 300.178 457.097, 296.416 459.375, 294.955 458.472 C 294.402 458.131, 294.074 458.447, 294.225 459.176 C 294.377 459.908, 293.723 460.439, 292.761 460.363 C 291.804 460.288, 291.237 460.574, 291.500 461 C 292.164 462.075, 289.298 464.302, 288.157 463.597 C 287.645 463.281, 286.671 463.692, 285.991 464.511 C 285.311 465.330, 285.123 466, 285.574 466 C 286.024 466, 284.883 467.557, 283.038 469.461 C 281.193 471.365, 279.235 472.645, 278.687 472.307 C 278.113 471.952, 278.005 472.199, 278.432 472.889 C 279.256 474.223, 277.216 477.251, 276 476.500 C 275.574 476.237, 275.288 476.804, 275.363 477.761 C 275.438 478.717, 274.954 479.393, 274.286 479.262 C 273.537 479.115, 273.315 479.657, 273.706 480.676 C 274.165 481.873, 273.975 482.103, 273.015 481.510 C 272.164 480.983, 271.931 481.079, 272.362 481.777 C 273.158 483.065, 270.004 490.120, 268.928 489.456 C 268.520 489.204, 268.440 489.968, 268.751 491.155 C 269.112 492.538, 268.933 493.076, 268.251 492.655 C 267.569 492.234, 267.389 492.772, 267.751 494.155 C 268.084 495.431, 267.916 496.066, 267.338 495.709 C 266.754 495.348, 266.518 496.388, 266.752 498.303 C 267.018 500.482, 266.845 501.075, 266.210 500.165 C 265.597 499.288, 265.387 500.660, 265.596 504.165 C 265.844 508.307, 265.733 508.829, 265.101 506.500 C 264.516 504.344, 264.297 505.892, 264.325 512 C 264.350 517.687, 264.626 519.673, 265.159 518 C 265.706 516.281, 265.849 517.167, 265.616 520.835 C 265.394 524.334, 265.598 525.710, 266.210 524.835 C 266.845 523.925, 267.018 524.518, 266.752 526.697 C 266.518 528.612, 266.754 529.652, 267.338 529.291 C 267.916 528.934, 268.084 529.569, 267.751 530.845 C 267.389 532.228, 267.569 532.766, 268.251 532.345 C 268.933 531.924, 269.112 532.462, 268.751 533.845 C 268.440 535.032, 268.562 535.771, 269.021 535.487 C 270.150 534.789, 271.312 538.686, 270.410 540.146 C 269.930 540.923, 270.131 541.037, 271.015 540.490 C 271.985 539.891, 272.164 540.132, 271.681 541.388 C 271.238 542.544, 271.401 542.870, 272.181 542.388 C 272.953 541.911, 273.128 542.223, 272.706 543.324 C 272.315 544.343, 272.537 544.885, 273.286 544.738 C 273.954 544.607, 274.440 545.270, 274.368 546.211 C 274.295 547.152, 274.745 547.827, 275.368 547.711 C 275.990 547.595, 276.501 548.400, 276.501 549.500 C 276.502 550.600, 277.177 551.511, 278.001 551.524 C 278.826 551.537, 279.444 552.287, 279.375 553.189 C 279.307 554.091, 281.309 556.780, 283.825 559.165 C 286.341 561.549, 287.804 562.712, 287.077 561.750 C 286.266 560.676, 286.166 560, 286.819 560 C 287.988 560, 289.461 561.932, 289.485 563.499 C 289.493 564.048, 290.400 564.498, 291.500 564.499 C 292.600 564.499, 293.393 565.046, 293.262 565.714 C 293.115 566.463, 293.657 566.685, 294.676 566.294 C 295.873 565.835, 296.103 566.025, 295.510 566.985 C 294.990 567.826, 295.079 568.069, 295.755 567.651 C 297.154 566.787, 300.145 567.957, 299.442 569.093 C 299.142 569.579, 299.668 569.681, 300.612 569.319 C 301.769 568.875, 302.095 569.038, 301.612 569.819 C 301.130 570.599, 301.456 570.762, 302.612 570.319 C 303.708 569.898, 304.088 570.049, 303.663 570.737 C 303.232 571.434, 303.759 571.614, 305.155 571.249 C 306.538 570.888, 307.076 571.067, 306.655 571.749 C 306.234 572.431, 306.772 572.611, 308.155 572.249 C 309.431 571.916, 310.066 572.084, 309.709 572.662 C 309.348 573.246, 310.388 573.482, 312.303 573.248 C 314.564 572.973, 315.094 573.140, 314.115 573.822 C 313.170 574.479, 314.282 574.666, 317.615 574.412 C 320.601 574.184, 321.602 574.323, 320.189 574.770 C 318.884 575.182, 322.238 575.500, 327.895 575.500 C 333.405 575.500, 337.145 575.155, 336.206 574.734 C 335.248 574.304, 336.451 574.165, 338.948 574.416 C 342.144 574.737, 342.989 574.577, 341.948 573.847 C 340.902 573.114, 341.472 572.994, 344 573.414 C 346.136 573.770, 346.976 573.660, 346.155 573.131 C 345.158 572.489, 345.494 572.093, 347.451 571.602 C 348.904 571.237, 350.591 571.247, 351.200 571.624 C 351.834 572.016, 352.029 571.856, 351.656 571.252 C 351.284 570.651, 352.391 569.711, 354.221 569.073 L 357.440 567.951 375.225 586.063 C 385.006 596.025, 392.775 604.555, 392.488 605.019 C 391.916 605.945, 393.702 607.323, 395.907 607.656 C 398.261 608.012, 417.200 627.867, 416.408 629.148 C 415.989 629.827, 416.126 630.040, 416.737 629.663 C 417.885 628.953, 432.653 643.649, 432.250 645.101 C 432.113 645.595, 432.563 645.887, 433.250 645.750 C 433.938 645.612, 434.376 646.096, 434.225 646.824 C 434.070 647.571, 434.432 647.851, 435.055 647.466 C 436.269 646.715, 439.680 650.899, 439.159 652.500 C 438.980 653.050, 439.167 653.166, 439.575 652.759 C 440.614 651.720, 443.119 653.998, 442.334 655.268 C 441.975 655.849, 442.171 656.013, 442.776 655.638 C 443.869 654.963, 445.456 656.641, 445.485 658.500 C 445.493 659.050, 446.175 659.520, 447 659.545 C 447.825 659.570, 448.376 660.166, 448.225 660.870 C 448.074 661.573, 448.338 661.909, 448.812 661.616 C 449.976 660.897, 453.725 663.617, 455.092 666.172 C 455.961 667.796, 455.926 668.072, 454.930 667.457 C 454.030 666.901, 453.846 667.157, 454.299 668.336 C 455.053 670.303, 454.139 673.204, 452.988 672.493 C 452.547 672.220, 452.440 672.968, 452.751 674.155 C 453.112 675.538, 452.933 676.076, 452.251 675.655 C 451.569 675.234, 451.389 675.772, 451.751 677.155 C 452.084 678.431, 451.916 679.066, 451.338 678.709 C 450.758 678.351, 450.494 679.403, 450.689 681.303 C 450.899 683.365, 450.746 683.896, 450.258 682.800 C 449.823 681.825, 449.422 684.601, 449.316 689.300 C 449.216 693.810, 448.901 699.525, 448.617 702 C 448.214 705.513, 448.306 705.952, 449.036 704 C 449.741 702.117, 449.858 702.858, 449.511 707 C 449.173 711.048, 449.331 712.104, 450.110 711 C 450.904 709.875, 451.023 710.374, 450.586 713 C 450.141 715.670, 450.260 716.144, 451.088 715 C 451.965 713.789, 452.079 713.933, 451.680 715.751 C 451.366 717.185, 451.573 717.764, 452.251 717.345 C 452.933 716.924, 453.112 717.462, 452.751 718.845 C 452.386 720.241, 452.566 720.768, 453.263 720.337 C 453.951 719.912, 454.102 720.292, 453.681 721.388 C 453.238 722.544, 453.401 722.870, 454.181 722.388 C 454.962 721.905, 455.125 722.231, 454.681 723.388 C 454.238 724.544, 454.401 724.870, 455.181 724.388 C 455.962 723.905, 456.125 724.231, 455.681 725.388 C 455.238 726.544, 455.401 726.870, 456.181 726.388 C 456.953 725.911, 457.128 726.223, 456.706 727.324 C 456.340 728.278, 456.532 728.875, 457.161 728.738 C 457.760 728.607, 458.477 729.125, 458.755 729.889 C 459.102 730.845, 458.829 731.029, 457.880 730.479 C 457.065 730.007, 456.841 730.052, 457.333 730.590 C 457.792 731.090, 458.654 731.500, 459.250 731.500 C 459.846 731.500, 460.542 732.125, 460.796 732.889 C 461.105 733.815, 460.831 734.014, 459.975 733.485 C 459.127 732.960, 458.937 733.088, 459.415 733.862 C 459.813 734.506, 460.506 734.805, 460.956 734.527 C 462.045 733.854, 464.324 736.667, 463.617 737.811 C 462.922 738.936, 467.404 743.263, 468.318 742.349 C 469.182 741.485, 473.112 745.010, 472.460 746.065 C 472.189 746.503, 472.494 747.187, 473.138 747.585 C 473.869 748.037, 474.041 747.876, 473.595 747.155 C 472.601 745.546, 474.509 745.703, 475.869 747.342 C 476.481 748.080, 476.649 749.052, 476.241 749.502 C 475.834 749.952, 476.062 749.997, 476.748 749.602 C 478.257 748.734, 482.297 751.338, 481.244 752.500 C 480.835 752.951, 481.090 752.980, 481.810 752.564 C 483.334 751.684, 489.211 753.849, 488.486 755.023 C 488.217 755.458, 488.968 755.560, 490.155 755.249 C 491.538 754.888, 492.076 755.067, 491.655 755.749 C 491.234 756.431, 491.772 756.611, 493.155 756.249 C 494.762 755.829, 495.106 756.020, 494.502 756.997 C 493.973 757.852, 494.081 758.068, 494.813 757.616 C 495.430 757.234, 498.300 757.236, 501.191 757.620 C 505.281 758.162, 506.009 758.503, 504.474 759.156 C 503.010 759.778, 503.275 759.868, 505.500 759.505 C 507.150 759.235, 512.613 758.899, 517.641 758.757 C 522.833 758.611, 526.289 758.140, 525.641 757.666 C 525 757.197, 526.035 757.087, 528 757.414 C 530.136 757.770, 530.976 757.660, 530.155 757.131 C 529.158 756.489, 529.494 756.093, 531.451 755.602 C 532.904 755.237, 534.591 755.247, 535.200 755.624 C 535.845 756.022, 536.029 755.855, 535.640 755.227 C 534.830 753.916, 538.510 752.579, 540.146 753.590 C 540.923 754.070, 541.037 753.869, 540.490 752.985 C 539.897 752.025, 540.127 751.835, 541.324 752.294 C 542.343 752.685, 542.885 752.463, 542.738 751.714 C 542.607 751.046, 543.270 750.560, 544.211 750.632 C 545.152 750.705, 545.827 750.311, 545.711 749.757 C 545.595 749.203, 546.125 748.523, 546.889 748.245 C 547.845 747.898, 548.029 748.171, 547.479 749.120 C 547.007 749.935, 547.052 750.159, 547.590 749.667 C 548.090 749.208, 548.501 748.308, 548.503 747.667 C 548.504 747.025, 549.288 746.495, 550.244 746.489 C 551.200 746.484, 552.005 746.034, 552.033 745.489 C 552.104 744.064, 559.191 737, 560.029 737.518 C 560.416 737.757, 561.580 736.986, 562.616 735.805 C 563.652 734.623, 563.938 733.985, 563.250 734.387 C 561.385 735.478, 561.740 733.456, 563.692 731.872 C 565.133 730.704, 565.258 730.708, 564.537 731.905 C 563.959 732.865, 564.061 733.080, 564.862 732.585 C 565.506 732.187, 565.779 731.452, 565.470 730.952 C 564.675 729.665, 566.904 725.823, 568.039 726.524 C 568.569 726.852, 568.691 726.357, 568.319 725.388 C 567.875 724.231, 568.038 723.905, 568.819 724.388 C 569.599 724.870, 569.762 724.544, 569.319 723.388 C 568.875 722.231, 569.038 721.905, 569.819 722.388 C 570.599 722.870, 570.762 722.544, 570.319 721.388 C 569.836 720.132, 570.015 719.891, 570.985 720.490 C 571.846 721.023, 572.070 720.922, 571.624 720.200 C 570.773 718.823, 571.937 713.843, 572.962 714.477 C 573.374 714.731, 573.516 713.716, 573.277 712.220 C 572.940 710.103, 573.076 709.833, 573.893 711 C 574.675 712.117, 574.818 711.478, 574.453 708.500 C 574.175 706.227, 574.295 705.241, 574.732 706.217 C 575.154 707.162, 575.500 702.594, 575.500 696.066 C 575.500 689.488, 575.129 684.711, 574.667 685.349 C 574.202 685.993, 574.079 684.737, 574.389 682.500 C 574.694 680.300, 574.582 679.079, 574.141 679.786 C 573.602 680.648, 572.938 679.736, 572.123 677.015 C 571.454 674.784, 571.223 672.449, 571.608 671.825 C 572.070 671.078, 571.857 670.970, 570.985 671.510 C 570.015 672.109, 569.836 671.868, 570.319 670.612 C 570.762 669.456, 570.599 669.130, 569.819 669.612 C 569.038 670.095, 568.875 669.769, 569.319 668.612 C 569.762 667.456, 569.599 667.130, 568.819 667.612 C 568.038 668.095, 567.875 667.769, 568.319 666.612 C 568.762 665.456, 568.599 665.130, 567.819 665.612 C 567.047 666.089, 566.872 665.777, 567.294 664.676 C 567.685 663.657, 567.463 663.115, 566.714 663.262 C 566.046 663.393, 565.560 662.730, 565.632 661.789 C 565.705 660.848, 565.255 660.173, 564.632 660.289 C 564.010 660.405, 563.479 659.600, 563.453 658.500 C 563.428 657.400, 562.890 656.604, 562.258 656.732 C 560.775 657.031, 556.832 651.525, 557.780 650.477 C 558.176 650.038, 558.024 649.950, 557.442 650.280 C 556.860 650.611, 555.264 649.895, 553.895 648.690 C 552.526 647.486, 552.102 646.950, 552.953 647.500 C 554.293 648.366, 554.320 648.270, 553.154 646.782 C 552.414 645.837, 551.514 645.103, 551.154 645.150 C 549.170 645.413, 547.960 644.874, 548.515 643.975 C 548.864 643.412, 548.778 643.015, 548.324 643.094 C 546.194 643.464, 544.948 642.894, 545.595 641.845 C 546.020 641.159, 545.872 640.961, 545.229 641.358 C 543.867 642.201, 538.882 640, 539.583 638.865 C 539.870 638.402, 539.332 638.319, 538.388 638.681 C 537.132 639.164, 536.891 638.985, 537.490 638.015 C 538.037 637.131, 537.923 636.930, 537.146 637.410 C 535.686 638.312, 531.789 637.150, 532.487 636.021 C 532.771 635.562, 532.032 635.440, 530.845 635.751 C 529.608 636.074, 528.937 635.910, 529.273 635.367 C 529.616 634.812, 528.331 634.566, 526.180 634.774 C 524.105 634.974, 523.002 634.774, 523.651 634.315 C 524.284 633.867, 519.264 633.500, 512.495 633.500 C 505.663 633.500, 500.702 633.871, 501.344 634.334 C 501.995 634.804, 500.970 634.914, 499 634.586 C 496.344 634.143, 495.862 634.262, 497 635.080 C 498.182 635.928, 497.924 636.065, 495.780 635.723 C 494.105 635.456, 493.301 635.678, 493.687 636.302 C 494.070 636.923, 493.477 637.097, 492.155 636.751 C 490.759 636.386, 490.232 636.566, 490.663 637.263 C 491.088 637.951, 490.708 638.102, 489.612 637.681 C 488.464 637.241, 488.131 637.402, 488.604 638.169 C 489.086 638.949, 488.623 639.135, 487.155 638.751 C 485.759 638.386, 485.232 638.566, 485.663 639.263 C 486.088 639.951, 485.708 640.102, 484.612 639.681 C 483.456 639.238, 483.130 639.401, 483.612 640.181 C 484.095 640.962, 483.769 641.125, 482.612 640.681 C 481.456 640.238, 481.130 640.401, 481.612 641.181 C 482.087 641.951, 481.780 642.129, 480.696 641.714 C 479.798 641.369, 478.755 641.587, 478.378 642.198 C 477.937 642.911, 478.195 643.048, 479.095 642.580 C 479.868 642.180, 479.669 642.529, 478.653 643.357 C 477.637 644.185, 476.101 644.592, 475.239 644.261 C 474.100 643.824, 473.890 644.048, 474.469 645.080 C 474.907 645.861, 469.832 641.133, 463.191 634.574 C 456.551 628.015, 451.203 622.185, 451.309 621.620 C 451.414 621.054, 450.825 620.550, 450 620.500 C 449.175 620.450, 448.624 619.834, 448.775 619.130 C 448.926 618.427, 448.662 618.091, 448.187 618.384 C 447.713 618.677, 445.586 617.136, 443.460 614.959 C 441.334 612.781, 439.966 611, 440.419 611 C 440.873 611, 440.689 610.330, 440.009 609.511 C 439.329 608.692, 438.405 608.249, 437.956 608.527 C 437.082 609.067, 435.541 607.156, 435.515 605.500 C 435.507 604.950, 434.987 604.500, 434.360 604.500 C 432.369 604.500, 422.844 595.062, 423.600 593.838 C 424.017 593.163, 423.869 592.963, 423.241 593.351 C 421.786 594.250, 389.711 562.276, 390.610 560.821 C 390.995 560.200, 390.879 559.957, 390.354 560.281 C 389.208 560.990, 379 551.833, 379 550.097 C 379 549.429, 379.399 549.129, 379.887 549.430 C 380.375 549.732, 380.712 549.196, 380.637 548.239 C 380.562 547.283, 381.010 546.595, 381.632 546.711 C 382.255 546.827, 382.705 546.152, 382.632 545.211 C 382.560 544.270, 383.046 543.607, 383.714 543.738 C 384.463 543.885, 384.685 543.343, 384.294 542.324 C 383.872 541.223, 384.047 540.911, 384.819 541.388 C 385.599 541.870, 385.762 541.544, 385.319 540.388 C 384.836 539.132, 385.015 538.891, 385.985 539.490 C 386.869 540.037, 387.070 539.923, 386.590 539.146 C 385.711 537.724, 386.836 533.781, 387.928 534.455 C 388.358 534.722, 388.516 533.716, 388.277 532.220 C 387.922 529.992, 388.056 529.772, 389.016 531 C 390.014 532.276, 390.100 532.227, 389.595 530.671 C 388.816 528.269, 390.112 519.972, 390.912 522.243 C 391.235 523.161, 391.500 518.729, 391.500 512.393 C 391.500 506.056, 391.247 501.914, 390.937 503.186 C 390.512 504.934, 390.212 504.343, 389.710 500.774 C 389.344 498.174, 389.302 495.249, 389.617 494.274 C 390.046 492.942, 389.949 492.835, 389.227 493.845 C 388.490 494.875, 388.109 494.572, 387.602 492.549 C 387.237 491.096, 387.247 489.409, 387.624 488.800 C 388.070 488.078, 387.846 487.977, 386.985 488.510 C 386.015 489.109, 385.836 488.868, 386.319 487.612 C 386.762 486.456, 386.599 486.130, 385.819 486.612 C 385.038 487.095, 384.875 486.769, 385.319 485.612 C 385.762 484.456, 385.599 484.130, 384.819 484.612 C 384.038 485.095, 383.875 484.769, 384.319 483.612 C 384.762 482.456, 384.599 482.130, 383.819 482.612 C 383.038 483.095, 382.875 482.769, 383.319 481.612 C 383.762 480.456, 383.599 480.130, 382.819 480.612 C 382.049 481.087, 381.871 480.780, 382.286 479.696 C 382.631 478.798, 382.413 477.755, 381.802 477.378 C 381.064 476.921, 380.975 477.162, 381.537 478.095 C 382.258 479.292, 382.133 479.296, 380.692 478.128 C 378.800 476.593, 378.352 474.482, 380.155 475.595 C 380.876 476.041, 381.037 475.869, 380.585 475.138 C 380.187 474.494, 379.474 474.207, 378.999 474.500 C 378.005 475.115, 374.865 471.028, 375.518 469.971 C 375.757 469.584, 375.063 468.462, 373.976 467.479 C 372.889 466.495, 372 466.010, 372 466.402 C 372 466.793, 370.988 466.404, 369.750 465.537 C 368.512 464.671, 367.500 463.408, 367.500 462.731 C 367.500 462.054, 366.938 461.444, 366.250 461.375 C 365.563 461.306, 364.523 461.194, 363.941 461.125 C 363.359 461.056, 363.167 460.539, 363.515 459.975 C 363.864 459.412, 363.778 459.015, 363.324 459.094 C 361.308 459.444, 359.933 458.918, 360.493 458.011 C 360.856 457.424, 360.407 457.290, 359.388 457.681 C 358.231 458.125, 357.905 457.962, 358.388 457.181 C 358.870 456.401, 358.544 456.238, 357.388 456.681 C 356.231 457.125, 355.905 456.962, 356.388 456.181 C 356.870 455.401, 356.544 455.238, 355.388 455.681 C 354.231 456.125, 353.905 455.962, 354.388 455.181 C 354.870 454.401, 354.544 454.238, 353.388 454.681 C 352.292 455.102, 351.912 454.951, 352.337 454.263 C 352.765 453.571, 352.200 453.363, 350.751 453.680 C 348.912 454.083, 348.775 453.969, 350 453.056 C 351.173 452.183, 350.868 452.087, 348.601 452.615 C 346.709 453.057, 345.924 452.933, 346.340 452.259 C 346.694 451.686, 346.204 451.287, 345.239 451.363 C 343.628 451.490, 343.481 449.280, 343.235 421.231 L 342.971 390.962 345.735 389.865 C 347.256 389.261, 349.693 388.708, 351.152 388.634 C 352.610 388.560, 353.637 388.228, 353.433 387.896 C 353.229 387.564, 354.195 386.777, 355.578 386.146 C 358.745 384.704, 359.300 384.705, 358.405 386.155 C 357.959 386.876, 358.131 387.037, 358.862 386.585 C 359.506 386.187, 359.803 385.490, 359.522 385.036 C 358.882 384, 361.851 382.790, 363.115 383.571 C 363.629 383.889, 363.926 383.553, 363.775 382.824 C 363.624 382.096, 364.175 381.491, 365 381.481 C 365.825 381.470, 366.651 381.020, 366.835 380.481 C 367.387 378.866, 369.181 377, 370.181 377 C 370.697 377, 370.800 377.563, 370.412 378.250 C 370.024 378.938, 371.572 377.721, 373.853 375.547 C 377.900 371.689, 379.016 370.254, 377 371.500 C 376.450 371.840, 376 371.711, 376 371.214 C 376 370.212, 378.946 367.324, 380.481 366.821 C 381.020 366.645, 381.470 365.825, 381.481 365 C 381.491 364.175, 382.046 363.607, 382.714 363.738 C 383.463 363.885, 383.685 363.343, 383.294 362.324 C 382.835 361.127, 383.025 360.897, 383.985 361.490 C 384.889 362.050, 385.071 361.924, 384.558 361.094 C 383.562 359.482, 385.941 353.846, 387.271 354.667 C 387.857 355.030, 388.011 354.827, 387.624 354.200 C 387.247 353.591, 387.237 351.904, 387.602 350.451 C 388.093 348.494, 388.489 348.158, 389.131 349.155 C 389.660 349.976, 389.770 349.136, 389.414 347 C 388.994 344.472, 389.114 343.902, 389.847 344.948 C 390.577 345.989, 390.737 345.144, 390.416 341.948 C 390.164 339.447, 390.304 338.250, 390.734 339.213 C 391.155 340.155, 391.500 336.234, 391.500 330.500 C 391.500 324.766, 391.155 320.845, 390.734 321.787 C 390.304 322.750, 390.164 321.553, 390.416 319.052 C 390.736 315.870, 390.575 315.016, 389.853 316.052 C 389.094 317.141, 388.951 316.825, 389.277 314.780 C 389.544 313.105, 389.322 312.301, 388.698 312.687 C 388.077 313.070, 387.903 312.477, 388.249 311.155 C 388.611 309.772, 388.431 309.234, 387.749 309.655 C 387.067 310.076, 386.888 309.538, 387.249 308.155 C 387.614 306.759, 387.434 306.232, 386.737 306.663 C 386.049 307.088, 385.898 306.708, 386.319 305.612 C 386.762 304.456, 386.599 304.130, 385.819 304.612 C 385.038 305.095, 384.875 304.769, 385.319 303.612 C 385.681 302.668, 385.579 302.142, 385.093 302.442 C 384.016 303.108, 382.766 300.188, 383.571 298.885 C 383.889 298.371, 383.553 298.074, 382.824 298.225 C 382.096 298.376, 381.560 297.730, 381.632 296.789 C 381.705 295.848, 381.255 295.173, 380.632 295.289 C 380.010 295.405, 379.499 294.600, 379.499 293.500 C 379.498 292.391, 378.829 291.499, 377.999 291.497 C 377.174 291.496, 376.495 290.728, 376.488 289.791 C 376.472 287.509, 370.273 281.215, 368.198 281.374 C 367.291 281.443, 366.537 280.826, 366.524 280.001 C 366.511 279.177, 365.600 278.502, 364.500 278.501 C 363.400 278.501, 362.595 277.990, 362.711 277.368 C 362.827 276.745, 362.152 276.295, 361.211 276.368 C 360.270 276.440, 359.607 275.954, 359.738 275.286 C 359.885 274.537, 359.343 274.315, 358.324 274.706 C 357.223 275.128, 356.911 274.953, 357.388 274.181 C 357.870 273.401, 357.544 273.238, 356.388 273.681 C 355.231 274.125, 354.905 273.962, 355.388 273.181 C 355.870 272.401, 355.544 272.238, 354.388 272.681 C 353.132 273.164, 352.891 272.985, 353.490 272.015 C 354.037 271.131, 353.923 270.930, 353.146 271.410 C 351.543 272.400, 347.822 271.097, 348.611 269.821 C 349.024 269.153, 348.453 269.039, 347 269.500 C 345.483 269.982, 344.969 269.858, 345.424 269.122 C 345.884 268.378, 345.049 268.211, 342.800 268.599 C 340.930 268.922, 340 268.807, 340.654 268.334 C 341.291 267.874, 335.393 267.495, 327.483 267.490 C 319.604 267.484, 313.685 267.854, 314.329 268.311 M 628.966 370.750 L 623.500 376.500 629.250 371.034 C 634.592 365.956, 635.458 365, 634.716 365 C 634.560 365, 631.972 367.587, 628.966 370.750 M 640.460 397.772 C 639.339 398.723, 634.852 403.325, 630.490 408 L 622.558 416.500 632.779 406.519 C 638.401 401.029, 643 396.417, 643 396.269 C 643 395.752, 642.485 396.057, 640.460 397.772 M 597.971 441.750 L 591.500 448.500 598.250 442.029 C 601.962 438.470, 605 435.432, 605 435.279 C 605 434.543, 603.982 435.480, 597.971 441.750 M 687.349 450.333 C 687.993 450.798, 686.737 450.921, 684.500 450.611 C 681.554 450.203, 680.895 450.331, 682 451.099 C 683.145 451.895, 682.743 452.049, 680.303 451.752 C 678.388 451.518, 677.348 451.754, 677.709 452.338 C 678.070 452.922, 677.405 453.078, 676.057 452.725 C 674.817 452.401, 674.065 452.398, 674.386 452.719 C 675.283 453.616, 669.814 456.143, 668.264 455.548 C 667.410 455.220, 667.165 455.458, 667.612 456.181 C 668.089 456.953, 667.777 457.128, 666.676 456.706 C 665.657 456.315, 665.115 456.537, 665.262 457.286 C 665.393 457.954, 664.730 458.440, 663.789 458.368 C 662.848 458.295, 662.173 458.745, 662.289 459.368 C 662.405 459.990, 661.683 460.433, 660.683 460.350 C 659.684 460.268, 659.118 460.451, 659.425 460.758 C 660.124 461.458, 658.081 464, 656.819 464 C 656.303 464, 656.220 463.438, 656.633 462.750 C 657.149 461.890, 656.859 461.926, 655.703 462.863 C 654.778 463.613, 654.225 464.554, 654.472 464.955 C 654.720 465.355, 653.365 467.193, 651.461 469.038 C 649.557 470.883, 648 472.024, 648 471.574 C 648 471.123, 647.352 471.293, 646.559 471.951 C 645.767 472.608, 645.338 473.716, 645.605 474.413 C 645.872 475.110, 645.309 476.314, 644.354 477.090 C 642.870 478.294, 642.740 478.295, 643.463 477.095 C 644.041 476.135, 643.939 475.920, 643.138 476.415 C 642.494 476.813, 642.221 477.548, 642.530 478.048 C 643.325 479.335, 641.096 483.177, 639.961 482.476 C 639.431 482.148, 639.309 482.643, 639.681 483.612 C 640.125 484.769, 639.962 485.095, 639.181 484.612 C 638.401 484.130, 638.238 484.456, 638.681 485.612 C 639.164 486.868, 638.985 487.109, 638.015 486.510 C 637.131 485.963, 636.930 486.077, 637.410 486.854 C 638.312 488.314, 637.150 492.211, 636.021 491.513 C 635.562 491.229, 635.409 492.010, 635.680 493.249 C 636.079 495.067, 635.965 495.211, 635.088 494 C 634.260 492.856, 634.141 493.330, 634.586 496 C 635.028 498.657, 634.909 499.139, 634.091 498 C 633.285 496.878, 633.134 497.760, 633.493 501.500 C 633.766 504.348, 633.655 505.506, 633.236 504.191 C 632.818 502.879, 632.500 506.250, 632.500 512 C 632.500 517.697, 632.819 521.109, 633.230 519.809 C 633.677 518.398, 633.816 519.400, 633.588 522.385 C 633.383 525.072, 633.558 526.715, 633.978 526.036 C 634.454 525.266, 634.995 526.161, 635.419 528.418 C 635.792 530.407, 635.781 532.546, 635.394 533.172 C 634.932 533.919, 635.141 534.031, 636.003 533.498 C 636.980 532.894, 637.171 533.238, 636.751 534.845 C 636.440 536.032, 636.542 536.783, 636.977 536.514 C 638.069 535.840, 640.351 541.624, 639.522 542.964 C 639.150 543.566, 639.442 543.927, 640.176 543.775 C 640.908 543.623, 641.439 544.277, 641.363 545.239 C 641.288 546.196, 641.655 546.713, 642.180 546.389 C 642.704 546.065, 642.991 546.622, 642.817 547.627 C 642.629 548.713, 643.109 549.474, 644 549.502 C 644.825 549.527, 645.438 550.320, 645.363 551.263 C 645.288 552.207, 645.549 552.779, 645.945 552.534 C 646.707 552.063, 656.500 561.577, 656.500 562.788 C 656.500 563.180, 656.856 563.381, 657.291 563.236 C 658.625 562.792, 662.090 565.045, 661.512 565.981 C 661.212 566.465, 661.494 567.187, 662.138 567.585 C 662.869 568.037, 663.041 567.876, 662.595 567.155 C 661.709 565.720, 662.543 565.685, 665.094 567.050 C 666.173 567.628, 666.749 568.597, 666.373 569.205 C 665.960 569.874, 666.149 570.026, 666.854 569.590 C 668.490 568.579, 672.170 569.916, 671.360 571.227 C 670.971 571.855, 671.155 572.022, 671.800 571.624 C 672.409 571.247, 674.096 571.237, 675.549 571.602 C 677.572 572.109, 677.875 572.490, 676.845 573.227 C 675.865 573.927, 676.023 574.018, 677.424 573.559 C 680.330 572.608, 688.530 574.030, 686.851 575.194 C 685.868 575.876, 686.044 575.992, 687.500 575.622 C 688.600 575.341, 694.066 574.974, 699.648 574.806 C 705.229 574.638, 709.612 574.199, 709.389 573.831 C 708.787 572.840, 714.758 571.732, 716.130 572.580 C 716.920 573.068, 717.041 572.876, 716.498 571.997 C 715.894 571.020, 716.238 570.829, 717.845 571.249 C 719.241 571.614, 719.768 571.434, 719.337 570.737 C 718.912 570.049, 719.292 569.898, 720.388 570.319 C 721.544 570.762, 721.870 570.599, 721.388 569.819 C 720.905 569.038, 721.231 568.875, 722.388 569.319 C 723.544 569.762, 723.870 569.599, 723.388 568.819 C 722.905 568.038, 723.231 567.875, 724.388 568.319 C 725.544 568.762, 725.870 568.599, 725.388 567.819 C 724.905 567.038, 725.231 566.875, 726.388 567.319 C 727.357 567.691, 727.852 567.569, 727.524 567.039 C 726.844 565.939, 730.332 563.853, 732.209 564.236 C 732.919 564.381, 733.392 563.951, 733.260 563.280 C 733.061 562.267, 736.943 559.285, 737.750 559.831 C 737.888 559.924, 737.956 559.733, 737.902 559.407 C 737.726 558.330, 743.289 553.061, 744.084 553.552 C 745.032 554.138, 746.437 552.051, 746.474 550.003 C 746.488 549.179, 747.025 548.504, 747.667 548.503 C 748.308 548.501, 749.208 548.090, 749.667 547.590 C 750.159 547.052, 749.935 547.007, 749.120 547.479 C 748.171 548.029, 747.898 547.845, 748.245 546.889 C 748.523 546.125, 749.203 545.595, 749.757 545.711 C 750.311 545.827, 750.705 545.152, 750.632 544.211 C 750.560 543.270, 751.046 542.607, 751.714 542.738 C 752.463 542.885, 752.685 542.343, 752.294 541.324 C 751.835 540.127, 752.025 539.897, 752.985 540.490 C 753.869 541.037, 754.070 540.923, 753.590 540.146 C 752.579 538.510, 753.916 534.830, 755.227 535.640 C 755.855 536.029, 756.022 535.845, 755.624 535.200 C 754.773 533.823, 755.937 528.843, 756.962 529.477 C 757.374 529.731, 757.516 528.716, 757.277 527.220 C 757.013 525.561, 757.175 524.964, 757.693 525.688 C 758.169 526.355, 758.399 521.089, 758.217 513.688 C 757.775 495.716, 757.637 494.106, 756.592 494.752 C 756.093 495.060, 755.939 494.342, 756.249 493.155 C 756.560 491.968, 756.438 491.229, 755.979 491.513 C 754.850 492.211, 753.688 488.314, 754.590 486.854 C 755.070 486.077, 754.869 485.963, 753.985 486.510 C 753.015 487.109, 752.836 486.868, 753.319 485.612 C 753.762 484.456, 753.599 484.130, 752.819 484.612 C 752.038 485.095, 751.875 484.769, 752.319 483.612 C 752.762 482.456, 752.599 482.130, 751.819 482.612 C 751.038 483.095, 750.875 482.769, 751.319 481.612 C 751.710 480.593, 751.576 480.144, 750.989 480.507 C 750.099 481.057, 749.568 479.735, 749.882 477.750 C 749.947 477.337, 749.438 477.112, 748.750 477.250 C 748.063 477.387, 747.562 476.717, 747.637 475.761 C 747.712 474.804, 747.435 474.231, 747.021 474.487 C 746.099 475.057, 742.926 471.683, 742.646 469.838 C 742.293 467.502, 740.979 466.071, 739.655 466.579 C 738.480 467.030, 734.500 463.621, 734.500 462.164 C 734.500 461.820, 733.825 461.530, 733 461.519 C 732.175 461.509, 731.595 460.990, 731.711 460.368 C 731.827 459.745, 731.152 459.295, 730.211 459.368 C 729.270 459.440, 728.607 458.954, 728.738 458.286 C 728.885 457.537, 728.343 457.315, 727.324 457.706 C 726.223 458.128, 725.911 457.953, 726.388 457.181 C 726.870 456.401, 726.544 456.238, 725.388 456.681 C 724.231 457.125, 723.905 456.962, 724.388 456.181 C 724.870 455.401, 724.544 455.238, 723.388 455.681 C 722.231 456.125, 721.905 455.962, 722.388 455.181 C 722.870 454.401, 722.544 454.238, 721.388 454.681 C 720.292 455.102, 719.912 454.951, 720.337 454.263 C 720.765 453.571, 720.200 453.363, 718.751 453.680 C 716.912 454.083, 716.775 453.969, 718 453.056 C 719.173 452.183, 718.868 452.087, 716.601 452.615 C 714.762 453.044, 713.928 452.925, 714.321 452.290 C 714.697 451.681, 713.875 451.459, 712.220 451.723 C 710.103 452.060, 709.833 451.924, 711 451.107 C 712.117 450.325, 711.478 450.182, 708.500 450.547 C 706.227 450.825, 705.241 450.705, 706.217 450.268 C 707.162 449.846, 703.044 449.500, 697.067 449.500 C 691.021 449.500, 686.709 449.870, 687.349 450.333 M 462.500 633 C 467.427 637.950, 471.683 642, 471.958 642 C 472.233 642, 468.427 637.950, 463.500 633 C 458.573 628.050, 454.317 624, 454.042 624 C 453.767 624, 457.573 628.050, 462.500 633 M 509.750 632.723 C 511.538 632.945, 514.462 632.945, 516.250 632.723 C 518.038 632.502, 516.575 632.320, 513 632.320 C 509.425 632.320, 507.962 632.502, 509.750 632.723 M 693.768 632.725 C 695.565 632.947, 698.265 632.943, 699.768 632.715 C 701.271 632.486, 699.800 632.304, 696.500 632.310 C 693.200 632.315, 691.971 632.502, 693.768 632.725 M 326.500 634.016 C 319.900 634.403, 313.825 634.515, 313 634.265 C 311.667 633.862, 311.667 633.942, 313 634.990 C 314.201 635.934, 313.803 636.052, 311 635.586 C 308.864 635.230, 308.024 635.340, 308.845 635.869 C 309.842 636.511, 309.506 636.907, 307.549 637.398 C 306.096 637.763, 304.409 637.753, 303.800 637.376 C 303.078 636.930, 302.977 637.154, 303.510 638.015 C 304.109 638.985, 303.868 639.164, 302.612 638.681 C 301.668 638.319, 301.142 638.421, 301.442 638.907 C 302.145 640.043, 299.154 641.213, 297.755 640.349 C 297.079 639.931, 296.990 640.174, 297.510 641.015 C 298.103 641.975, 297.873 642.165, 296.676 641.706 C 295.657 641.315, 295.115 641.537, 295.262 642.286 C 295.393 642.954, 294.730 643.440, 293.789 643.368 C 292.848 643.295, 292.173 643.745, 292.289 644.368 C 292.405 644.990, 291.600 645.501, 290.500 645.501 C 289.400 645.502, 288.500 646.056, 288.500 646.732 C 288.500 648.352, 284.486 651.131, 283.471 650.215 C 283.036 649.822, 282.970 650.010, 283.326 650.632 C 284.117 652.018, 280.331 657.052, 278.739 656.731 C 278.109 656.604, 277.572 657.400, 277.547 658.500 C 277.521 659.600, 276.937 660.387, 276.250 660.250 C 275.562 660.112, 275.053 660.337, 275.118 660.750 C 275.425 662.693, 274.910 664.063, 274.069 663.543 C 273.557 663.226, 272.813 663.494, 272.415 664.138 C 271.963 664.869, 272.124 665.041, 272.845 664.595 C 274.460 663.598, 274.309 664.310, 271.825 669.424 C 270.628 671.887, 269.320 673.698, 268.918 673.449 C 268.516 673.201, 268.440 673.968, 268.751 675.155 C 269.061 676.342, 268.907 677.060, 268.408 676.752 C 267.908 676.443, 267.453 677.386, 267.395 678.845 C 267.337 680.305, 266.902 684.425, 266.428 688 C 265.653 693.842, 265.507 694.146, 264.980 691 C 264.645 688.997, 264.409 691.134, 264.427 696 C 264.445 700.675, 264.645 703.375, 264.872 702 C 265.134 700.415, 265.773 702.244, 266.620 707 C 267.354 711.125, 267.745 715.086, 267.489 715.802 C 267.232 716.518, 267.435 716.849, 267.939 716.537 C 269.128 715.803, 270.349 719.627, 269.410 721.146 C 268.930 721.923, 269.131 722.037, 270.015 721.490 C 270.985 720.891, 271.164 721.132, 270.681 722.388 C 270.238 723.544, 270.401 723.870, 271.181 723.388 C 271.962 722.905, 272.125 723.231, 271.681 724.388 C 271.238 725.544, 271.401 725.870, 272.181 725.388 C 272.962 724.905, 273.125 725.231, 272.681 726.388 C 272.309 727.357, 272.431 727.852, 272.961 727.524 C 274.232 726.739, 276.271 730.730, 275.386 732.271 C 274.997 732.947, 275.052 733.162, 275.509 732.748 C 276.421 731.920, 280 734.733, 280 736.277 C 280 736.810, 279.212 736.627, 278.250 735.872 C 276.666 734.630, 276.630 734.665, 277.863 736.239 C 278.613 737.195, 279.552 737.777, 279.951 737.530 C 280.897 736.946, 288.221 744.446, 287.454 745.213 C 287.131 745.536, 287.673 745.733, 288.659 745.650 C 289.645 745.568, 290.463 746.174, 290.476 746.999 C 290.489 747.823, 291.400 748.498, 292.500 748.499 C 293.631 748.499, 294.381 749.075, 294.225 749.824 C 294.074 750.553, 294.381 750.883, 294.907 750.558 C 296.165 749.780, 303.064 753.088, 302.405 754.153 C 302.125 754.606, 302.482 754.762, 303.198 754.499 C 303.914 754.236, 307.162 754.854, 310.416 755.872 C 313.670 756.890, 315.829 757.898, 315.215 758.111 C 314.600 758.325, 318.013 758.597, 322.799 758.715 C 327.584 758.833, 333.075 759.160, 335 759.441 C 337.780 759.847, 338.088 759.749, 336.500 758.961 C 334.967 758.200, 335.540 758.073, 338.948 758.416 C 342.144 758.737, 342.989 758.577, 341.948 757.847 C 340.902 757.114, 341.472 756.994, 344 757.414 C 346.656 757.857, 347.138 757.738, 346 756.920 C 344.818 756.072, 345.076 755.935, 347.220 756.277 C 348.716 756.516, 349.722 756.358, 349.455 755.928 C 348.781 754.836, 352.724 753.711, 354.146 754.590 C 354.923 755.070, 355.037 754.869, 354.490 753.985 C 353.891 753.015, 354.132 752.836, 355.388 753.319 C 356.544 753.762, 356.870 753.599, 356.388 752.819 C 355.905 752.038, 356.231 751.875, 357.388 752.319 C 358.544 752.762, 358.870 752.599, 358.388 751.819 C 357.911 751.047, 358.223 750.872, 359.324 751.294 C 360.343 751.685, 360.885 751.463, 360.738 750.714 C 360.607 750.046, 361.270 749.560, 362.211 749.632 C 363.152 749.705, 363.827 749.255, 363.711 748.632 C 363.595 748.010, 364.283 747.562, 365.239 747.637 C 366.196 747.712, 366.763 747.426, 366.500 747 C 365.907 746.040, 368.372 743.915, 370.429 743.613 C 372.697 743.280, 376.928 738.975, 376.382 737.554 C 375.902 736.303, 377.674 734.295, 379.500 734.019 C 380.050 733.937, 380.376 733.257, 380.223 732.510 C 380.071 731.762, 380.478 730.822, 381.128 730.421 C 381.919 729.932, 382.042 730.123, 381.500 731 C 380.976 731.848, 381.082 732.067, 381.802 731.622 C 382.413 731.245, 382.631 730.202, 382.286 729.304 C 381.834 728.125, 382.028 727.899, 382.985 728.490 C 383.836 729.017, 384.069 728.921, 383.638 728.223 C 382.731 726.756, 386.072 719.926, 387.319 720.697 C 387.864 721.034, 388.001 720.810, 387.624 720.200 C 387.247 719.591, 387.237 717.904, 387.602 716.451 C 388.093 714.494, 388.489 714.158, 389.131 715.155 C 389.660 715.976, 389.770 715.136, 389.414 713 C 388.978 710.379, 389.097 709.877, 389.887 711 C 390.677 712.121, 390.820 711.490, 390.453 708.500 C 390.175 706.228, 390.295 705.241, 390.732 706.215 C 391.154 707.158, 391.500 703.015, 391.500 697.008 C 391.500 691.002, 391.155 686.855, 390.734 687.794 C 390.304 688.752, 390.165 687.549, 390.416 685.052 C 390.736 681.864, 390.576 681.014, 389.851 682.052 C 389.110 683.112, 389.005 682.740, 389.459 680.666 C 389.910 678.607, 389.753 678.035, 388.883 678.573 C 388.042 679.092, 387.853 678.670, 388.249 677.155 C 388.560 675.968, 388.438 675.229, 387.979 675.513 C 386.850 676.211, 385.688 672.314, 386.590 670.854 C 387.070 670.077, 386.869 669.963, 385.985 670.510 C 385.015 671.109, 384.836 670.868, 385.319 669.612 C 385.762 668.456, 385.599 668.130, 384.819 668.612 C 384.038 669.095, 383.875 668.769, 384.319 667.612 C 384.762 666.456, 384.599 666.130, 383.819 666.612 C 383.038 667.095, 382.875 666.769, 383.319 665.612 C 383.732 664.534, 383.585 664.138, 382.922 664.548 C 382.296 664.935, 381.995 664.456, 382.183 663.373 C 382.372 662.281, 381.896 661.535, 381 661.520 C 380.175 661.506, 379.499 660.596, 379.499 659.497 C 379.498 658.399, 379.048 657.493, 378.499 657.485 C 376.966 657.461, 375 655.998, 375 654.882 C 375 654.332, 375.563 654.203, 376.250 654.596 C 376.938 654.988, 376.194 653.906, 374.597 652.190 C 373 650.475, 371.404 649.250, 371.049 649.470 C 370.022 650.104, 367.500 648.198, 367.500 646.788 C 367.500 646.081, 366.600 645.502, 365.500 645.501 C 364.400 645.501, 363.607 644.954, 363.738 644.286 C 363.869 643.618, 363.352 643.311, 362.589 643.604 C 361.826 643.897, 360.862 643.586, 360.447 642.914 C 359.932 642.080, 360.108 641.949, 361 642.500 C 361.848 643.024, 362.067 642.918, 361.622 642.198 C 361.245 641.587, 360.202 641.369, 359.304 641.714 C 358.220 642.129, 357.913 641.951, 358.388 641.181 C 358.870 640.401, 358.544 640.238, 357.388 640.681 C 356.231 641.125, 355.905 640.962, 356.388 640.181 C 356.870 639.401, 356.544 639.238, 355.388 639.681 C 354.231 640.125, 353.905 639.962, 354.388 639.181 C 354.870 638.401, 354.544 638.238, 353.388 638.681 C 352.292 639.102, 351.912 638.951, 352.337 638.263 C 352.765 637.571, 352.200 637.363, 350.751 637.680 C 348.912 638.083, 348.775 637.969, 350 637.056 C 351.173 636.183, 350.868 636.087, 348.601 636.615 C 346.678 637.064, 345.921 636.937, 346.352 636.239 C 346.765 635.571, 346.214 635.393, 344.845 635.751 C 343.569 636.084, 342.934 635.916, 343.291 635.338 C 343.652 634.754, 342.612 634.518, 340.697 634.752 C 338.239 635.052, 337.847 634.898, 339 634.086 C 339.825 633.506, 340.050 633.094, 339.500 633.171 C 338.950 633.249, 333.100 633.629, 326.500 634.016 M 685.783 634.268 C 686.759 634.705, 685.773 634.825, 683.500 634.547 C 681.300 634.277, 680.054 634.403, 680.731 634.826 C 681.502 635.307, 680.259 636.051, 677.410 636.813 C 674.907 637.482, 672.370 637.729, 671.775 637.361 C 671.079 636.931, 670.984 637.165, 671.510 638.015 C 672.123 639.008, 671.856 639.159, 670.445 638.617 C 669.409 638.220, 668.878 638.211, 669.265 638.599 C 670.175 639.509, 665.086 642.171, 663.871 641.420 C 663.365 641.107, 663.074 641.447, 663.225 642.176 C 663.376 642.904, 662.730 643.440, 661.789 643.368 C 660.848 643.295, 660.173 643.745, 660.289 644.368 C 660.405 644.990, 659.600 645.501, 658.500 645.501 C 657.391 645.502, 656.499 646.171, 656.497 647.001 C 656.496 647.826, 655.732 648.505, 654.800 648.512 C 652.517 648.528, 647.214 653.729, 647.373 655.795 C 647.443 656.706, 646.826 657.463, 646.001 657.476 C 645.177 657.489, 644.502 658.400, 644.501 659.500 C 644.501 660.600, 643.990 661.405, 643.368 661.289 C 642.745 661.173, 642.295 661.848, 642.368 662.789 C 642.440 663.730, 641.954 664.393, 641.286 664.262 C 640.537 664.115, 640.315 664.657, 640.706 665.676 C 641.128 666.777, 640.953 667.089, 640.181 666.612 C 639.401 666.130, 639.238 666.456, 639.681 667.612 C 640.125 668.769, 639.962 669.095, 639.181 668.612 C 638.401 668.130, 638.238 668.456, 638.681 669.612 C 639.164 670.868, 638.985 671.109, 638.015 670.510 C 637.131 669.963, 636.930 670.077, 637.410 670.854 C 638.312 672.314, 637.150 676.211, 636.021 675.513 C 635.562 675.229, 635.440 675.968, 635.751 677.155 C 636.171 678.762, 635.980 679.106, 635.003 678.502 C 634.133 677.964, 633.932 678.081, 634.406 678.848 C 634.800 679.485, 634.802 682.140, 634.410 684.749 C 633.970 687.689, 633.471 688.843, 633.100 687.784 C 632.770 686.844, 632.500 690.541, 632.500 696 C 632.500 701.459, 632.845 705.155, 633.266 704.213 C 633.696 703.250, 633.836 704.447, 633.584 706.948 C 633.263 710.144, 633.423 710.989, 634.153 709.948 C 634.886 708.902, 635.006 709.472, 634.586 712 C 634.230 714.136, 634.340 714.976, 634.869 714.155 C 635.511 713.158, 635.907 713.494, 636.398 715.451 C 636.763 716.904, 636.753 718.591, 636.376 719.200 C 635.932 719.918, 636.153 720.023, 637.003 719.498 C 637.980 718.894, 638.171 719.238, 637.751 720.845 C 637.386 722.241, 637.566 722.768, 638.263 722.337 C 638.951 721.912, 639.102 722.292, 638.681 723.388 C 638.238 724.544, 638.401 724.870, 639.181 724.388 C 639.962 723.905, 640.125 724.231, 639.681 725.388 C 639.309 726.357, 639.431 726.852, 639.961 726.524 C 641.144 725.793, 643.308 729.692, 642.472 731.045 C 642.131 731.598, 642.447 731.926, 643.176 731.775 C 643.925 731.619, 644.501 732.369, 644.501 733.500 C 644.502 734.600, 644.952 735.401, 645.501 735.281 C 646.779 735.001, 657.055 745.102, 656.465 746.057 C 656.221 746.452, 656.793 746.712, 657.737 746.637 C 658.680 746.562, 659.463 747.025, 659.476 747.667 C 659.489 748.308, 659.910 749.208, 660.410 749.667 C 660.948 750.159, 660.993 749.935, 660.521 749.120 C 659.974 748.177, 660.161 747.887, 661.111 748.204 C 661.875 748.458, 662.500 749.154, 662.500 749.750 C 662.500 750.346, 662.910 751.208, 663.410 751.667 C 663.948 752.159, 663.993 751.935, 663.521 751.120 C 662.971 750.171, 663.155 749.898, 664.111 750.245 C 664.875 750.523, 665.393 751.240, 665.262 751.839 C 665.125 752.468, 665.722 752.660, 666.676 752.294 C 667.873 751.835, 668.103 752.025, 667.510 752.985 C 666.963 753.869, 667.077 754.070, 667.854 753.590 C 669.314 752.688, 673.211 753.850, 672.513 754.979 C 672.229 755.438, 672.968 755.560, 674.155 755.249 C 675.538 754.888, 676.076 755.067, 675.655 755.749 C 675.236 756.427, 675.815 756.634, 677.249 756.320 C 679.067 755.921, 679.211 756.035, 678 756.912 C 676.856 757.740, 677.330 757.859, 680 757.414 C 681.964 757.087, 683.001 757.198, 682.363 757.666 C 681.718 758.139, 685.184 758.597, 690.363 758.725 C 695.388 758.848, 701.075 759.175, 703 759.451 C 705.786 759.850, 706.092 759.750, 704.500 758.961 C 702.967 758.200, 703.540 758.073, 706.948 758.416 C 709.394 758.662, 710.820 758.507, 710.115 758.071 C 709.285 757.558, 710.467 756.868, 713.468 756.112 C 716.017 755.470, 718.599 755.252, 719.206 755.627 C 719.845 756.022, 720.028 755.854, 719.640 755.227 C 718.830 753.916, 722.510 752.579, 724.146 753.590 C 724.923 754.070, 725.037 753.869, 724.490 752.985 C 723.897 752.025, 724.127 751.835, 725.324 752.294 C 726.343 752.685, 726.885 752.463, 726.738 751.714 C 726.607 751.046, 727.283 750.562, 728.239 750.637 C 729.228 750.715, 729.697 750.318, 729.325 749.717 C 728.921 749.063, 729.293 748.899, 730.304 749.286 C 731.202 749.631, 732.245 749.413, 732.622 748.802 C 733.072 748.074, 732.825 747.967, 731.905 748.492 C 730.840 749.099, 730.771 748.999, 731.619 748.077 C 732.235 747.409, 733.360 746.770, 734.119 746.659 C 734.879 746.547, 735.628 746.016, 735.784 745.478 C 736.295 743.717, 745.293 735.102, 746.410 735.303 C 747.009 735.411, 747.376 734.746, 747.223 733.825 C 747.071 732.904, 747.478 731.822, 748.128 731.421 C 748.919 730.932, 749.042 731.123, 748.500 732 C 747.976 732.848, 748.082 733.067, 748.802 732.622 C 749.413 732.245, 749.677 731.321, 749.388 730.569 C 749.100 729.817, 749.414 728.862, 750.086 728.447 C 750.920 727.932, 751.051 728.108, 750.500 729 C 749.976 729.848, 750.082 730.067, 750.802 729.622 C 751.413 729.245, 751.631 728.202, 751.286 727.304 C 750.871 726.220, 751.049 725.913, 751.819 726.388 C 752.599 726.870, 752.762 726.544, 752.319 725.388 C 751.836 724.132, 752.015 723.891, 752.985 724.490 C 753.889 725.050, 754.071 724.924, 753.558 724.094 C 752.636 722.602, 754.893 716.816, 756.105 717.565 C 756.584 717.861, 756.758 717.518, 756.489 716.802 C 756.221 716.086, 756.613 712.575, 757.359 709 C 758.106 705.425, 758.893 703.368, 759.108 704.429 C 759.324 705.490, 759.500 701.794, 759.500 696.216 C 759.500 690.638, 759.236 686.826, 758.914 687.744 C 758.140 689.953, 756.861 680.618, 757.617 678.274 C 758.025 677.007, 757.924 676.867, 757.263 677.786 C 756.124 679.369, 753.525 671.577, 754.608 669.825 C 755.070 669.078, 754.857 668.970, 753.985 669.510 C 753.015 670.109, 752.836 669.868, 753.319 668.612 C 753.691 667.643, 753.569 667.148, 753.039 667.476 C 751.791 668.247, 749.714 664.272, 750.608 662.825 C 751.052 662.108, 750.860 661.968, 750.088 662.446 C 749.267 662.953, 748.970 662.601, 749.183 661.373 C 749.372 660.281, 748.896 659.535, 748 659.520 C 747.175 659.506, 746.479 658.596, 746.453 657.497 C 746.428 656.399, 745.934 655.590, 745.356 655.699 C 744.017 655.953, 736.332 648.139, 737 647.203 C 737.275 646.818, 736.601 646.502, 735.503 646.501 C 734.404 646.501, 733.494 645.825, 733.480 645 C 733.465 644.104, 732.719 643.628, 731.627 643.817 C 730.622 643.991, 730.065 643.704, 730.389 643.180 C 730.713 642.655, 730.196 642.288, 729.239 642.363 C 728.283 642.438, 727.607 641.954, 727.738 641.286 C 727.885 640.537, 727.343 640.315, 726.324 640.706 C 725.127 641.165, 724.897 640.975, 725.490 640.015 C 726.037 639.131, 725.923 638.930, 725.146 639.410 C 723.627 640.349, 719.803 639.128, 720.537 637.939 C 720.850 637.434, 720.334 637.318, 719.388 637.681 C 718.292 638.102, 717.912 637.951, 718.337 637.263 C 718.768 636.566, 718.241 636.386, 716.845 636.751 C 715.238 637.171, 714.894 636.980, 715.498 636.003 C 716.031 635.141, 715.919 634.932, 715.172 635.394 C 714.546 635.781, 712.407 635.792, 710.418 635.419 C 708.429 635.046, 707.252 634.461, 707.802 634.120 C 708.352 633.779, 703.236 633.500, 696.434 633.500 C 689.631 633.500, 684.838 633.846, 685.783 634.268" stroke="none" fill="#4a5d8c" fill-rule="evenodd"/></svg>